<?xml version="1.0" encoding="UTF-8" standalone="no"?>
<!DOCTYPE svg PUBLIC "-//W3C//DTD SVG 1.1//EN" "http://www.w3.org/Graphics/SVG/1.1/DTD/svg11.dtd">
<svg width="288px" height="96px" version="1.1" xmlns="http://www.w3.org/2000/svg" xmlns:xlink="http://www.w3.org/1999/xlink" xml:space="preserve" xmlns:serif="http://www.serif.com/" style="fill-rule:evenodd;clip-rule:evenodd;stroke-miterlimit:10;">
    <g id="NAND-Gatter">
        <path d="M128,48C128,52.389 124.389,56 120,56C115.611,56 112,52.389 112,48C112,43.611 115.611,40 120,40C124.386,40 127.996,43.606 128,47.992" style="fill:white;fill-rule:nonzero;stroke:black;stroke-width:2px;"/>
        <path id="AND-Gatter" d="M64,16L80,16C97.555,16 112,30.445 112,48C112,65.555 97.555,80 80,80L64,80L64,16Z" style="fill:white;fill-rule:nonzero;stroke:black;stroke-width:2px;"/>
    </g>
    <g id="Inverter">
        <path d="M160,32L208,48L160,64L160,32Z" style="fill:white;fill-rule:nonzero;stroke:black;stroke-width:2px;stroke-linecap:square;"/>
        <path d="M224,48C224,52.389 220.389,56 216,56C211.611,56 208,52.389 208,48C208,43.611 211.611,40 216,40C220.386,40 223.996,43.606 224,47.992" style="fill:white;fill-rule:nonzero;stroke:black;stroke-width:2px;"/>
    </g>
    <path d="M32,32L64,32" style="fill:none;stroke:black;stroke-width:2px;stroke-linecap:round;stroke-linejoin:round;stroke-miterlimit:1.5;"/>
    <path d="M32,64L64,64" style="fill:none;stroke:black;stroke-width:2px;stroke-linecap:round;stroke-linejoin:round;stroke-miterlimit:1.5;"/>
    <path d="M128,48L160,48" style="fill:none;stroke:black;stroke-width:2px;stroke-linecap:round;stroke-linejoin:round;stroke-miterlimit:1.5;"/>
    <path d="M224,48L256,48" style="fill:none;stroke:black;stroke-width:2px;stroke-linecap:round;stroke-linejoin:round;stroke-miterlimit:1.5;"/>
    <path d="M144,48L144,16L256,16" style="fill:none;stroke:black;stroke-width:2px;stroke-linecap:round;stroke-linejoin:round;stroke-miterlimit:1.5;"/>
    <circle cx="144" cy="48" r="4"/>
    <text x="14.707px" y="39.173px" style="font-family:'Helvetica';font-size:20px;">A</text>
    <text x="14.707px" y="71.173px" style="font-family:'Helvetica';font-size:20px;">B</text>
    <text x="258.805px" y="22.173px" style="font-family:'Helvetica';font-size:20px;">X</text>
    <text x="258.805px" y="55.173px" style="font-family:'Helvetica';font-size:20px;">Y</text>
</svg>
