<?xml version="1.0" encoding="UTF-8" standalone="no"?>
<!DOCTYPE svg PUBLIC "-//W3C//DTD SVG 1.1//EN" "http://www.w3.org/Graphics/SVG/1.1/DTD/svg11.dtd">
<svg width="368px" height="192px" version="1.1" xmlns="http://www.w3.org/2000/svg" xmlns:xlink="http://www.w3.org/1999/xlink" xml:space="preserve" xmlns:serif="http://www.serif.com/" style="fill-rule:evenodd;clip-rule:evenodd;stroke-linejoin:round;stroke-miterlimit:1.5;">
    <path d="M80,144L112,144" style="fill:none;stroke:black;stroke-width:2px;"/>
    <path d="M80,48L112,48" style="fill:none;stroke:black;stroke-width:2px;"/>
    <path d="M256,96L288,96" style="fill:none;stroke:black;stroke-width:2px;"/>
    <g id="Motor">
        <rect x="288" y="64" width="64" height="64" style="fill:rgb(255,204,128);stroke:black;stroke-width:2px;stroke-linecap:round;"/>
        <path d="M320,88C324.389,88 328,91.611 328,96C328,100.389 324.389,104 320,104C315.611,104 312,100.389 312,96C312,91.611 315.611,88 320,88M320,92C317.806,92 316,93.806 316,96C316,98.194 317.806,100 320,100C322.194,100 324,98.194 324,96C324,93.806 322.194,92 320,92M316,116C315.5,116 315.08,115.64 315,115.16L314.26,109.86C313,109.36 311.92,108.68 310.88,107.88L305.9,109.9C305.46,110.06 304.92,109.9 304.68,109.46L300.68,102.54C300.42,102.1 300.54,101.56 300.92,101.26L305.14,97.94L305,96L305.14,94L300.92,90.74C300.54,90.44 300.42,89.9 300.68,89.46L304.68,82.54C304.92,82.1 305.46,81.92 305.9,82.1L310.88,84.1C311.92,83.32 313,82.64 314.26,82.14L315,76.84C315.08,76.36 315.5,76 316,76L324,76C324.5,76 324.92,76.36 325,76.84L325.74,82.14C327,82.64 328.08,83.32 329.12,84.1L334.1,82.1C334.54,81.92 335.08,82.1 335.32,82.54L339.32,89.46C339.58,89.9 339.46,90.44 339.08,90.74L334.86,94L335,96L334.86,98L339.08,101.26C339.46,101.56 339.58,102.1 339.32,102.54L335.32,109.46C335.08,109.9 334.54,110.08 334.1,109.9L329.12,107.9C328.08,108.68 327,109.36 325.74,109.86L325,115.16C324.92,115.64 324.5,116 324,116L316,116M318.5,80L317.76,85.22C315.36,85.72 313.24,87 311.7,88.78L306.88,86.7L305.38,89.3L309.6,92.4C308.8,94.74 308.8,97.28 309.6,99.6L305.36,102.72L306.86,105.32L311.72,103.24C313.26,105 315.36,106.28 317.74,106.76L318.48,112L321.52,112L322.26,106.78C324.64,106.28 326.74,105 328.28,103.24L333.14,105.32L334.64,102.72L330.4,99.62C331.2,97.28 331.2,94.74 330.4,92.4L334.62,89.3L333.12,86.7L328.3,88.78C326.76,87 324.64,85.72 322.24,85.24L321.5,80L318.5,80Z" style="fill-rule:nonzero;"/>
    </g>
    <g id="Bewegungssensor">
        <rect x="16" y="16" width="64" height="64" style="fill:rgb(144,202,249);stroke:black;stroke-width:2px;stroke-linecap:round;"/>
        <path d="M57,34.5C59.194,34.5 61,32.694 61,30.5C61,28.306 59.194,26.5 57,26.5C54.806,26.5 53,28.306 53,30.5C53,32.694 54.806,34.5 57,34.5M49.8,62.3L51.8,53.5L56,57.5L56,69.5L60,69.5L60,54.5L55.8,50.5L57,44.5C59.78,47.68 63.78,49.5 68,49.5L68,45.5C64.48,45.56 61.2,43.72 59.4,40.7L57.4,37.5C56.68,36.3 55.4,35.5 54,35.5C53.4,35.5 53,35.7 52.4,35.7L42,40.1L42,49.5L46,49.5L46,42.7L49.6,41.3L46.4,57.5L36.6,55.5L35.8,59.5L49.8,62.3M32,41.5C30.903,41.5 30,40.597 30,39.5C30,38.403 30.903,37.5 32,37.5L38,37.5L38,41.5L32,41.5M34,33.5C32.903,33.5 32,32.597 32,31.5C32,30.403 32.903,29.5 34,29.5L44,29.5L44,33.5L34,33.5M30,49.5C28.903,49.5 28,48.597 28,47.5C28,46.403 28.903,45.5 30,45.5L38,45.5L38,49.5L30,49.5Z" style="fill-rule:nonzero;"/>
    </g>
    <g id="Schalter">
        <rect x="16" y="112" width="64" height="64" style="fill:rgb(144,202,249);stroke:black;stroke-width:2px;stroke-linecap:round;"/>
        <g>
            <path d="M63.786,125.555L63.786,125.502C63.786,125.398 63.733,125.345 63.681,125.241C63.681,125.241 63.681,125.188 63.629,125.188C63.576,125.136 63.576,125.084 63.524,125.031L63.472,124.979L63.472,124.927L59.809,121.264C59.599,121.055 59.338,120.95 59.076,120.95L36.89,120.95C36.837,120.95 36.785,120.95 36.733,121.002L36.68,121.002C36.628,121.002 36.628,121.055 36.576,121.055C36.523,121.055 36.471,121.107 36.419,121.159L36.209,121.369C36.157,121.421 36.157,121.473 36.105,121.526C36.105,121.578 36.052,121.578 36.052,121.63L36.052,121.683C36.052,121.735 36,121.787 36,121.84L36,166.003C36,166.579 36.471,167.05 37.047,167.05L59.024,167.05C59.599,167.05 60.07,166.579 60.07,166.003L60.07,144.131L63.733,125.921L63.733,125.764C63.838,125.659 63.838,125.607 63.786,125.555ZM58.658,123.095L60.227,124.665L41.233,124.665L39.663,123.095L58.658,123.095ZM38.145,133.456L38.145,124.561L39.611,126.026L38.145,133.456ZM58.082,164.957L38.198,164.957L38.198,145.073L58.082,145.073L58.082,164.957ZM58.239,142.98L38.407,142.98L41.651,126.758L61.536,126.758L58.239,142.98ZM48.925,137.381L49.867,132.776C49.971,132.2 50.547,131.834 51.122,131.939C51.698,132.043 52.064,132.619 51.96,133.194L50.965,137.799C50.861,138.323 50.442,138.636 49.919,138.636L49.71,138.636C49.186,138.532 48.82,137.956 48.925,137.381ZM48.14,158.835C50.233,158.835 51.96,157.108 51.96,155.015C51.96,152.922 50.233,151.247 48.14,151.247C46.047,151.247 44.32,152.974 44.32,155.067C44.32,157.16 46.047,158.835 48.14,158.835ZM48.14,153.34C49.082,153.34 49.867,154.125 49.867,155.067C49.867,156.009 49.082,156.794 48.14,156.794C47.198,156.794 46.413,156.009 46.413,155.067C46.413,154.073 47.198,153.34 48.14,153.34Z" style="fill-rule:nonzero;"/>
        </g>
    </g>
    <g id="Lösung">
        <path d="M112,48L192,48L192,80L208,80" style="fill:none;stroke:black;stroke-width:2px;"/>
        <path d="M112,144L192,144L192,112L208,112" style="fill:none;stroke:black;stroke-width:2px;"/>
        <path id="AND-Gatter" d="M208,64L224,64C241.555,64 256,78.445 256,96C256,113.555 241.555,128 224,128L208,128L208,64Z" style="fill:white;fill-rule:nonzero;stroke:black;stroke-width:2px;stroke-linejoin:miter;stroke-miterlimit:10;"/>
    </g>
</svg>
