<?xml version="1.0" encoding="UTF-8" standalone="no"?>
<!DOCTYPE svg PUBLIC "-//W3C//DTD SVG 1.1//EN" "http://www.w3.org/Graphics/SVG/1.1/DTD/svg11.dtd">
<svg width="368px" height="192px" version="1.1" xmlns="http://www.w3.org/2000/svg" xmlns:xlink="http://www.w3.org/1999/xlink" xml:space="preserve" xmlns:serif="http://www.serif.com/" style="fill-rule:evenodd;clip-rule:evenodd;stroke-linejoin:round;stroke-miterlimit:1.5;">
    <path d="M80,144L112,144" style="fill:none;stroke:black;stroke-width:2px;"/>
    <path d="M80,48L112,48" style="fill:none;stroke:black;stroke-width:2px;"/>
    <path d="M256,96L288,96" style="fill:none;stroke:black;stroke-width:2px;"/>
    <g id="Motor">
        <rect x="288" y="64" width="64" height="64" style="fill:rgb(255,204,128);stroke:black;stroke-width:2px;stroke-linecap:round;"/>
        <path d="M320,88C324.389,88 328,91.611 328,96C328,100.389 324.389,104 320,104C315.611,104 312,100.389 312,96C312,91.611 315.611,88 320,88M320,92C317.806,92 316,93.806 316,96C316,98.194 317.806,100 320,100C322.194,100 324,98.194 324,96C324,93.806 322.194,92 320,92M316,116C315.5,116 315.08,115.64 315,115.16L314.26,109.86C313,109.36 311.92,108.68 310.88,107.88L305.9,109.9C305.46,110.06 304.92,109.9 304.68,109.46L300.68,102.54C300.42,102.1 300.54,101.56 300.92,101.26L305.14,97.94L305,96L305.14,94L300.92,90.74C300.54,90.44 300.42,89.9 300.68,89.46L304.68,82.54C304.92,82.1 305.46,81.92 305.9,82.1L310.88,84.1C311.92,83.32 313,82.64 314.26,82.14L315,76.84C315.08,76.36 315.5,76 316,76L324,76C324.5,76 324.92,76.36 325,76.84L325.74,82.14C327,82.64 328.08,83.32 329.12,84.1L334.1,82.1C334.54,81.92 335.08,82.1 335.32,82.54L339.32,89.46C339.58,89.9 339.46,90.44 339.08,90.74L334.86,94L335,96L334.86,98L339.08,101.26C339.46,101.56 339.58,102.1 339.32,102.54L335.32,109.46C335.08,109.9 334.54,110.08 334.1,109.9L329.12,107.9C328.08,108.68 327,109.36 325.74,109.86L325,115.16C324.92,115.64 324.5,116 324,116L316,116M318.5,80L317.76,85.22C315.36,85.72 313.24,87 311.7,88.78L306.88,86.7L305.38,89.3L309.6,92.4C308.8,94.74 308.8,97.28 309.6,99.6L305.36,102.72L306.86,105.32L311.72,103.24C313.26,105 315.36,106.28 317.74,106.76L318.48,112L321.52,112L322.26,106.78C324.64,106.28 326.74,105 328.28,103.24L333.14,105.32L334.64,102.72L330.4,99.62C331.2,97.28 331.2,94.74 330.4,92.4L334.62,89.3L333.12,86.7L328.3,88.78C326.76,87 324.64,85.72 322.24,85.24L321.5,80L318.5,80Z" style="fill-rule:nonzero;"/>
    </g>
    <g id="Taster">
        <rect x="16" y="112" width="64" height="64" style="fill:rgb(144,202,249);stroke:black;stroke-width:2px;stroke-linecap:round;"/>
        <path d="M48,130.5C43.776,130.5 39.969,130.966 37.092,131.797C35.654,132.212 34.442,132.718 33.482,133.375C32.523,134.032 31.67,134.991 31.67,136.281L31.67,142.094L28.997,142.094C28.945,142.091 28.893,142.091 28.841,142.094C28.207,142.156 27.678,142.615 27.528,143.234L24.544,155.641C24.515,155.758 24.5,155.879 24.5,156C24.5,156.822 25.175,157.498 25.997,157.5L70.003,157.5C70.825,157.498 71.5,156.822 71.5,156C71.5,155.879 71.485,155.758 71.456,155.641L68.472,143.234C68.306,142.562 67.695,142.088 67.003,142.094L64.33,142.094L64.33,136.281C64.33,134.991 63.477,134.032 62.518,133.375C61.558,132.718 60.346,132.212 58.908,131.797C56.031,130.966 52.224,130.5 48,130.5ZM48,133.5C51.992,133.5 55.595,133.97 58.08,134.687C59.322,135.046 60.277,135.476 60.814,135.844C61.076,136.023 61.204,136.157 61.267,136.234C61.116,136.389 60.839,136.63 60.377,136.875C59.684,137.243 58.67,137.621 57.439,137.937C54.976,138.571 51.641,138.969 48,138.969C44.359,138.969 41.024,138.571 38.561,137.937C37.33,137.621 36.316,137.243 35.623,136.875C35.169,136.634 34.886,136.405 34.733,136.25C34.794,136.174 34.917,136.028 35.186,135.844C35.723,135.476 36.678,135.046 37.92,134.687C40.405,133.97 44.008,133.5 48,133.5ZM34.67,139.75C35.573,140.177 36.621,140.522 37.811,140.828C40.598,141.545 44.138,141.969 48,141.969C51.862,141.969 55.402,141.545 58.189,140.828C59.379,140.522 60.427,140.177 61.33,139.75L61.33,146.875C61.311,146.897 61.217,147.052 60.814,147.328C60.277,147.696 59.322,148.126 58.08,148.484C55.595,149.202 51.992,149.672 48,149.672C44.008,149.672 40.405,149.202 37.92,148.484C36.678,148.126 35.723,147.696 35.186,147.328C34.799,147.064 34.694,146.923 34.67,146.891L34.67,139.75ZM30.169,145.094L31.67,145.094L31.67,146.891C31.67,148.181 32.523,149.14 33.482,149.797C34.442,150.454 35.654,150.944 37.092,151.359C39.969,152.19 43.776,152.672 48,152.672C52.224,152.672 56.031,152.19 58.908,151.359C60.346,150.944 61.558,150.454 62.518,149.797C63.477,149.14 64.33,148.181 64.33,146.891L64.33,145.094L65.831,145.094L68.097,154.5L27.903,154.5L30.169,145.094Z" style="fill-rule:nonzero;"/>
    </g>
    <g id="Lösung">
        <path d="M112,48L192,48L192,80L208,80" style="fill:none;stroke:black;stroke-width:2px;"/>
        <path d="M176,144L192,144L192,112L208,112" style="fill:none;stroke:black;stroke-width:2px;"/>
        <path id="AND-Gatter" d="M208,64L224,64C241.555,64 256,78.445 256,96C256,113.555 241.555,128 224,128L208,128L208,64Z" style="fill:white;fill-rule:nonzero;stroke:black;stroke-width:2px;stroke-linejoin:miter;stroke-miterlimit:10;"/>
        <g id="Inverter">
            <path d="M112,128L160,144L112,160L112,128Z" style="fill:white;fill-rule:nonzero;stroke:black;stroke-width:2px;stroke-linecap:square;stroke-linejoin:miter;stroke-miterlimit:10;"/>
            <path d="M176,144C176,148.389 172.389,152 168,152C163.611,152 160,148.389 160,144C160,139.611 163.611,136 168,136C172.386,136 175.996,139.606 176,143.992" style="fill:white;fill-rule:nonzero;stroke:black;stroke-width:2px;stroke-linejoin:miter;stroke-miterlimit:10;"/>
        </g>
    </g>
    <g id="Feuchtigkeitssensor">
        <rect x="16" y="16" width="64" height="64" style="fill:rgb(144,202,249);stroke:black;stroke-width:2px;stroke-linecap:round;"/>
        <path d="M48,31.54L46.5,33.22C46.5,33.22 43.94,36.12 41.36,39.88C38.78,43.64 36,48.14 36,52.46C36,59.043 41.417,64.46 48,64.46C54.583,64.46 60,59.043 60,52.46C60,48.14 57.22,43.64 54.64,39.88C52.06,36.12 49.5,33.22 49.5,33.22L48,31.54M48,37.8C48.88,38.84 49.68,39.7 51.36,42.14C53.78,45.66 56,50.14 56,52.46C56,56.9 52.44,60.46 48,60.46C43.56,60.46 40,56.9 40,52.46C40,50.14 42.22,45.66 44.64,42.14C46.32,39.7 47.12,38.84 48,37.8Z" style="fill-rule:nonzero;"/>
    </g>
</svg>
