<?xml version="1.0" encoding="UTF-8" standalone="no"?>
<!DOCTYPE svg PUBLIC "-//W3C//DTD SVG 1.1//EN" "http://www.w3.org/Graphics/SVG/1.1/DTD/svg11.dtd">
<svg width="800px" height="450px" version="1.1" xmlns="http://www.w3.org/2000/svg" xmlns:xlink="http://www.w3.org/1999/xlink" xml:space="preserve" xmlns:serif="http://www.serif.com/" style="fill-rule:evenodd;clip-rule:evenodd;stroke-linecap:round;stroke-linejoin:round;stroke-miterlimit:1.5;">
    <g id="Datenfliuss">
        <path d="M214,283.862L208,271.862L202,283.862C205,280.862 211,280.862 214,283.862Z"/>
        <path d="M214,292.029L208,304.029L202,292.029C205,295.029 211,295.029 214,292.029Z"/>
        <path d="M208,281.462L208,294.429" style="fill:none;stroke:black;stroke-width:2px;"/>
        <path d="M646,284L640,272L634,284C637,281 643,281 646,284Z"/>
        <path d="M646,292L640,304L634,292C637,295 643,295 646,292Z"/>
        <path d="M640,281.6L640,294.4" style="fill:none;stroke:black;stroke-width:2px;"/>
        <path d="M262,180L256,192L250,180C253,183 259,183 262,180Z"/>
        <path d="M256,160L256,182.4" style="fill:none;stroke:black;stroke-width:2px;"/>
        <path d="M346,172L352,160L358,172C355,169 349,169 346,172Z"/>
        <path d="M352,240L352,169.6" style="fill:none;stroke:black;stroke-width:2px;"/>
        <path d="M102,292.029L96,304.029L90,292.029C93,295.029 99,295.029 102,292.029Z"/>
        <path d="M96,224L96,294.429" style="fill:none;stroke:black;stroke-width:2px;"/>
        <path d="M710,172.658L704,160.658L698,172.658C701,169.658 707,169.658 710,172.658Z"/>
        <path d="M710,228L704,240L698,228C701,231 707,231 710,228Z"/>
        <path d="M704,170.258L704,230.4" style="fill:none;stroke:black;stroke-width:2px;"/>
        <path d="M646,180L640,192L634,180C637,183 643,183 646,180Z"/>
        <path d="M640,160L640,182.4" style="fill:none;stroke:black;stroke-width:2px;"/>
        <path d="M538,172L544,160L550,172C547,169 541,169 538,172Z"/>
        <path d="M544,192L544,169.6" style="fill:none;stroke:black;stroke-width:2px;"/>
        <path d="M442,172L448,160L454,172C451,169 445,169 442,172Z"/>
        <path d="M448,240L448,169.6" style="fill:none;stroke:black;stroke-width:2px;"/>
    </g>
    <g id="Kontrollsignale">
        <path d="M502.982,35.978L497.025,48L490.982,36.022C493.993,39.011 499.992,38.989 502.982,35.978Z" style="fill:rgb(183,28,28);"/>
        <path d="M112.014,48L112.014,32L496.967,32C496.967,32 496.978,34.999 496.99,38.4" style="fill:none;stroke:rgb(183,28,28);stroke-width:2px;"/>
        <path d="M396.002,102L384.002,96L396.002,90C393.002,93 393.002,99 396.002,102Z" style="fill:rgb(183,28,28);"/>
        <path d="M416.025,96L393.602,96" style="fill:none;stroke:rgb(183,28,28);stroke-width:2px;"/>
        <path d="M595.998,90L607.998,96L595.998,102C598.998,99 598.998,93 595.998,90Z" style="fill:rgb(183,28,28);"/>
        <path d="M576.002,96L598.398,96" style="fill:none;stroke:rgb(183,28,28);stroke-width:2px;"/>
        <path d="M212.024,90L224.024,96L212.024,102C215.024,99 215.024,93 212.024,90Z" style="fill:rgb(183,28,28);"/>
        <path d="M192.027,96L214.424,96" style="fill:none;stroke:rgb(183,28,28);stroke-width:2px;"/>
        <path d="M364,342L352,336L364,330C361,333 361,339 364,342Z" style="fill:rgb(183,28,28);"/>
        <path d="M480,160L480,336L361.6,336" style="fill:none;stroke:rgb(183,28,28);stroke-width:2px;"/>
        <path d="M54,292L48,304L42,292C45,295 51,295 54,292Z" style="fill:rgb(183,28,28);"/>
        <path d="M48,160L48,294.4" style="fill:none;stroke:rgb(183,28,28);stroke-width:2px;"/>
        <path d="M516,330.293L528,336.293L516,342.293C519,339.293 519,333.293 516,330.293Z" style="fill:rgb(183,28,28);"/>
        <path d="M496.014,160L496.014,336.293L518.4,336.293" style="fill:none;stroke:rgb(183,28,28);stroke-width:2px;"/>
    </g>
    <g id="Ein--Ausgabewerk" serif:id="Ein-/Ausgabewerk">
        <rect x="528" y="304" width="240" height="64.586" style="fill:rgb(255,224,130);fill-rule:nonzero;stroke:black;stroke-width:1.42px;stroke-linecap:butt;stroke-linejoin:miter;stroke-miterlimit:10;"/>
        <text x="549.715px" y="342.504px" style="font-family:'ArialMT', 'Arial', sans-serif;font-size:24px;">Ein-/Ausgabewerk</text>
    </g>
    <g id="Speicherwerk">
        <rect x="32.025" y="304" width="319.975" height="112" style="fill:rgb(255,224,130);stroke:black;stroke-width:2px;"/>
        <text x="118.823px" y="337.349px" style="font-family:'ArialMT', 'Arial', sans-serif;font-size:24px;">Speicherwerk</text>
        <g id="Zähler">
            <rect x="48" y="352" width="288" height="48" style="fill:rgb(165,214,167);stroke:black;stroke-width:2px;"/>
            <text x="121.021px" y="380.234px" style="font-family:'ArialMT', 'Arial', sans-serif;font-size:16px;">16 Speicherstellen</text>
        </g>
    </g>
    <g id="Datenbus">
        <rect id="path511" x="144" y="240" width="624" height="31.862" style="fill:rgb(144,202,249);fill-rule:nonzero;stroke:black;stroke-width:1.49px;stroke-linecap:butt;stroke-linejoin:miter;stroke-miterlimit:10;"/>
        <text x="397.867px" y="260.072px" style="font-family:'ArialMT', 'Arial', sans-serif;font-size:16px;">Datenbus (4 Bit)</text>
    </g>
    <g id="Rechenwerk">
        <rect x="607.998" y="47.951" width="159.976" height="112" style="fill:rgb(255,224,130);stroke:black;stroke-width:2px;"/>
        <text x="620.393px" y="82.118px" style="font-family:'ArialMT', 'Arial', sans-serif;font-size:24px;">Rechenwerk</text>
        <g id="Akkumulator">
            <rect x="623.986" y="95.956" width="128" height="48.024" style="fill:rgb(165,214,167);stroke:black;stroke-width:2px;"/>
            <text x="643.428px" y="123.436px" style="font-family:'ArialMT', 'Arial', sans-serif;font-size:16px;">Akkumulator</text>
        </g>
    </g>
    <g id="Dekodierer">
        <rect x="416.025" y="48" width="159.976" height="112" style="fill:rgb(255,224,130);stroke:black;stroke-width:2px;"/>
        <text x="436.393px" y="81.494px" style="font-family:'ArialMT', 'Arial', sans-serif;font-size:24px;">Dekodierer</text>
        <g id="Befehlsregister">
            <rect x="431.405" y="95.962" width="128" height="48.024" style="fill:rgb(165,214,167);stroke:black;stroke-width:2px;"/>
            <text x="442.121px" y="124.115px" style="font-family:'ArialMT', 'Arial', sans-serif;font-size:16px;">Befehlsregister</text>
        </g>
    </g>
    <g id="Adressierer">
        <rect x="224.025" y="48" width="159.976" height="112" style="fill:rgb(255,224,130);stroke:black;stroke-width:2px;"/>
        <text x="242.514px" y="81.332px" style="font-family:'ArialMT', 'Arial', sans-serif;font-size:24px;">Adressierer</text>
        <g id="Programmzähler">
            <rect x="240.018" y="95.962" width="128.054" height="48.024" style="fill:rgb(165,214,167);stroke:black;stroke-width:2px;"/>
            <text x="244.189px" y="124.052px" style="font-family:'ArialMT', 'Arial', sans-serif;font-size:16px;">Programmzähler</text>
        </g>
    </g>
    <g id="Taktgeber">
        <rect x="32.025" y="48" width="159.976" height="112" style="fill:rgb(255,224,130);stroke:black;stroke-width:2px;"/>
        <text x="58.74px" y="75.52px" style="font-family:'ArialMT', 'Arial', sans-serif;font-size:24px;">T<tspan x="70.769px 84.149px " y="75.52px 75.52px ">ak</tspan>tge<tspan x="129.623px " y="75.52px ">b</tspan>er</text>
        <g id="Zähler1" serif:id="Zähler">
            <rect x="47.987" y="95.997" width="128.054" height="48.024" style="fill:rgb(165,214,167);stroke:black;stroke-width:2px;"/>
            <text x="89.068px" y="125.677px" style="font-family:'ArialMT', 'Arial', sans-serif;font-size:16px;">Zähler</text>
        </g>
    </g>
    <g id="Flags">
        <rect x="512" y="192" width="160" height="32" style="fill:rgb(144,202,249);fill-rule:nonzero;stroke:black;stroke-width:1.21px;stroke-linecap:butt;stroke-linejoin:miter;stroke-miterlimit:10;"/>
        <text x="572.09px" y="212.043px" style="font-family:'ArialMT', 'Arial', sans-serif;font-size:16px;">Flags</text>
    </g>
    <g id="Adressbus">
        <rect x="64" y="192" width="224" height="32" style="fill:rgb(144,202,249);fill-rule:nonzero;stroke:black;stroke-width:1.52px;stroke-linecap:butt;stroke-linejoin:miter;stroke-miterlimit:10;"/>
        <text x="138.523px" y="213.633px" style="font-family:'ArialMT', 'Arial', sans-serif;font-size:16px;">Adressbus</text>
    </g>
</svg>
