<?xml version="1.0" encoding="UTF-8" standalone="no"?>
<!DOCTYPE svg PUBLIC "-//W3C//DTD SVG 1.1//EN" "http://www.w3.org/Graphics/SVG/1.1/DTD/svg11.dtd">
<svg width="66px" height="66px" version="1.1" xmlns="http://www.w3.org/2000/svg" xmlns:xlink="http://www.w3.org/1999/xlink" xml:space="preserve" xmlns:serif="http://www.serif.com/" style="fill-rule:evenodd;clip-rule:evenodd;stroke-linecap:round;stroke-linejoin:round;stroke-miterlimit:1.5;">
    <g id="Schalter">
        <rect x="1" y="1" width="64" height="64" style="fill:rgb(144,202,249);stroke:black;stroke-width:2px;"/>
        <g>
            <path d="M48.786,14.555L48.786,14.502C48.786,14.398 48.733,14.345 48.681,14.241C48.681,14.241 48.681,14.188 48.629,14.188C48.576,14.136 48.576,14.084 48.524,14.031L48.472,13.979L48.472,13.927L44.809,10.264C44.599,10.055 44.338,9.95 44.076,9.95L21.89,9.95C21.837,9.95 21.785,9.95 21.733,10.002L21.68,10.002C21.628,10.002 21.628,10.055 21.576,10.055C21.523,10.055 21.471,10.107 21.419,10.159L21.209,10.369C21.157,10.421 21.157,10.473 21.105,10.526C21.105,10.578 21.052,10.578 21.052,10.63L21.052,10.683C21.052,10.735 21,10.787 21,10.84L21,55.003C21,55.579 21.471,56.05 22.047,56.05L44.024,56.05C44.599,56.05 45.07,55.579 45.07,55.003L45.07,33.131L48.733,14.921L48.733,14.764C48.838,14.659 48.838,14.607 48.786,14.555ZM43.658,12.095L45.227,13.665L26.233,13.665L24.663,12.095L43.658,12.095ZM23.145,22.456L23.145,13.561L24.611,15.026L23.145,22.456ZM43.082,53.957L23.198,53.957L23.198,34.073L43.082,34.073L43.082,53.957ZM43.239,31.98L23.407,31.98L26.651,15.758L46.536,15.758L43.239,31.98ZM33.925,26.381L34.867,21.776C34.971,21.2 35.547,20.834 36.122,20.939C36.698,21.043 37.064,21.619 36.96,22.194L35.965,26.799C35.861,27.323 35.442,27.636 34.919,27.636L34.71,27.636C34.186,27.532 33.82,26.956 33.925,26.381ZM33.14,47.835C35.233,47.835 36.96,46.108 36.96,44.015C36.96,41.922 35.233,40.247 33.14,40.247C31.047,40.247 29.32,41.974 29.32,44.067C29.32,46.16 31.047,47.835 33.14,47.835ZM33.14,42.34C34.082,42.34 34.867,43.125 34.867,44.067C34.867,45.009 34.082,45.794 33.14,45.794C32.198,45.794 31.413,45.009 31.413,44.067C31.413,43.073 32.198,42.34 33.14,42.34Z" style="fill-rule:nonzero;"/>
        </g>
    </g>
</svg>
