<?xml version="1.0" encoding="UTF-8" standalone="no"?>
<!DOCTYPE svg PUBLIC "-//W3C//DTD SVG 1.1//EN" "http://www.w3.org/Graphics/SVG/1.1/DTD/svg11.dtd">
<svg width="767px" height="231px" version="1.1" xmlns="http://www.w3.org/2000/svg" xmlns:xlink="http://www.w3.org/1999/xlink" xml:space="preserve" xmlns:serif="http://www.serif.com/" style="fill-rule:evenodd;clip-rule:evenodd;stroke-linecap:round;stroke-linejoin:round;stroke-miterlimit:1.5;">
    <g id="Ausgabe">
        <rect x="576" y="16" width="175" height="50" style="fill:rgb(144,202,249);stroke:black;stroke-width:1px;"/>
        <text x="624.452px" y="46.054px" style="font-family:'ArialMT', 'Arial', sans-serif;font-size:20px;">Ausgabe</text>
    </g>
    <g id="Eingabe">
        <rect x="16" y="16" width="175" height="50" style="fill:rgb(144,202,249);stroke:black;stroke-width:1px;"/>
        <text x="66.425px" y="46.054px" style="font-family:'ArialMT', 'Arial', sans-serif;font-size:20px;">Eingabe</text>
    </g>
    <g id="Speicherung">
        <rect x="296" y="171" width="175" height="50" style="fill:rgb(144,202,249);stroke:black;stroke-width:1px;"/>
        <text x="327.567px" y="201.176px" style="font-family:'ArialMT', 'Arial', sans-serif;font-size:20px;">Speicherung</text>
    </g>
    <g id="Verarbeitung">
        <rect x="296" y="16" width="175" height="50" style="fill:rgb(144,202,249);stroke:black;stroke-width:1px;"/>
        <text x="327.416px" y="46.054px" style="font-family:'ArialMT', 'Arial', sans-serif;font-size:20px;">V<tspan x="339.652px 350.775px " y="46.054px 46.054px ">er</tspan>arbeitung</text>
    </g>
    <path d="M206,45.375L206,36.625L268.5,36.625L268.5,28.5L281,41L268.5,53.5L268.5,45.375L206,45.375Z" style="fill:rgb(144,202,249);stroke:black;stroke-width:1px;"/>
    <path d="M387.875,143.5L396,143.5L383.5,156L371,143.5L379.125,143.5L379.125,93.5L371,93.5L383.5,81L396,93.5L387.875,93.5L387.875,143.5Z" style="fill:rgb(144,202,249);stroke:black;stroke-width:1px;"/>
    <path d="M486,45.375L486,36.625L548.5,36.625L548.5,28.5L561,41L548.5,53.5L548.5,45.375L486,45.375Z" style="fill:rgb(144,202,249);stroke:black;stroke-width:1px;"/>
</svg>
