<?xml version="1.0" encoding="UTF-8" standalone="no"?>
<!DOCTYPE svg PUBLIC "-//W3C//DTD SVG 1.1//EN" "http://www.w3.org/Graphics/SVG/1.1/DTD/svg11.dtd">
<svg width="140px" height="214px" version="1.1" xmlns="http://www.w3.org/2000/svg" xmlns:xlink="http://www.w3.org/1999/xlink" xml:space="preserve" xmlns:serif="http://www.serif.com/" style="fill-rule:evenodd;clip-rule:evenodd;stroke-linecap:square;stroke-miterlimit:1.5;">
    <path d="M136,10.6C136,6.957 133.043,4 129.4,4L10.6,4C6.957,4 4,6.957 4,10.6L4,203.4C4,207.043 6.957,210 10.6,210L129.4,210C133.043,210 136,207.043 136,203.4L136,10.6Z" style="fill:rgb(239,154,154);"/>
    <g>
        <path d="M39.257,59.661L4,59.661" style="fill:none;stroke:black;stroke-width:5.83px;"/>
        <path d="M136,59.661L100.743,59.661" style="fill:none;stroke:black;stroke-width:5.83px;"/>
        <g>
            <path d="M40.508,40L79.831,59.661L40.508,79.322L40.508,40Z" style="fill:white;fill-rule:nonzero;stroke:black;stroke-width:5.9px;stroke-linecap:butt;stroke-miterlimit:10;"/>
            <path d="M99.492,59.661C99.492,65.054 95.054,69.492 89.661,69.492C84.268,69.492 79.831,65.054 79.831,59.661C79.831,54.268 84.268,49.831 89.661,49.831C95.05,49.831 99.486,54.262 99.492,59.651" style="fill:white;fill-rule:nonzero;stroke:black;stroke-width:5.9px;stroke-linecap:butt;stroke-miterlimit:10;"/>
        </g>
    </g>
    <g>
        <path d="M100.743,154.361L136,154.361" style="fill:none;stroke:black;stroke-width:5.83px;"/>
        <path d="M4,154.361L39.257,154.361" style="fill:none;stroke:black;stroke-width:5.83px;"/>
        <g>
            <path d="M99.492,134.7L60.169,154.361L99.492,174.022L99.492,134.7Z" style="fill:white;fill-rule:nonzero;stroke:black;stroke-width:5.9px;stroke-linecap:butt;stroke-miterlimit:10;"/>
            <path d="M40.508,154.361C40.508,159.754 44.946,164.192 50.339,164.192C55.732,164.192 60.169,159.754 60.169,154.361C60.169,148.968 55.732,144.531 50.339,144.531C44.95,144.531 40.514,148.962 40.508,154.351" style="fill:white;fill-rule:nonzero;stroke:black;stroke-width:5.9px;stroke-linecap:butt;stroke-miterlimit:10;"/>
        </g>
    </g>
    <path d="M136,10.6C136,6.957 133.043,4 129.4,4L10.6,4C6.957,4 4,6.957 4,10.6L4,203.4C4,207.043 6.957,210 10.6,210L129.4,210C133.043,210 136,207.043 136,203.4L136,10.6Z" style="fill:none;stroke:rgb(183,28,28);stroke-width:8.11px;stroke-linecap:round;stroke-linejoin:round;"/>
</svg>
