<?xml version="1.0" encoding="UTF-8" standalone="no"?>
<!DOCTYPE svg PUBLIC "-//W3C//DTD SVG 1.1//EN" "http://www.w3.org/Graphics/SVG/1.1/DTD/svg11.dtd">
<svg width="140px" height="214px" version="1.1" xmlns="http://www.w3.org/2000/svg" xmlns:xlink="http://www.w3.org/1999/xlink" xml:space="preserve" xmlns:serif="http://www.serif.com/" style="fill-rule:evenodd;clip-rule:evenodd;stroke-linecap:square;stroke-miterlimit:1.5;">
    <path d="M4,203.4C4,207.043 6.957,210 10.6,210L129.4,210C133.043,210 136,207.043 136,203.4L136,10.6C136,6.957 133.043,4 129.4,4L10.6,4C6.957,4 4,6.957 4,10.6L4,203.4Z" style="fill:rgb(159,168,218);"/>
    <path d="M132,6L88,30L88,70" style="fill:none;stroke:black;stroke-width:5.83px;"/>
    <path d="M8,6L52,30L52,70" style="fill:none;stroke:black;stroke-width:5.83px;"/>
    <path d="M69.73,118L69.73,210" style="fill:none;stroke:black;stroke-width:5.83px;stroke-linejoin:round;"/>
    <rect x="45" y="148" width="50" height="50" style="fill:white;stroke:black;stroke-width:5.83px;"/>
    <text id="Zero" x="56.107px" y="190.004px" style="font-family:'Helvetica';font-size:50px;">0</text>
    <g id="XOR">
        <path d="M109.73,75.069C109.73,94.713 90.087,124.178 70.443,134C50.799,124.178 31.155,94.713 31.155,75.069C70.443,94.713 70.443,94.713 109.73,75.069Z" style="fill:white;fill-rule:nonzero;stroke:black;stroke-width:5.89px;stroke-linecap:butt;stroke-miterlimit:10;"/>
        <path d="M109.191,55.807C99.958,68.515 85.168,76.051 69.461,76.051C53.753,76.051 38.963,68.515 29.73,55.807" style="fill:none;fill-rule:nonzero;stroke:black;stroke-width:5.89px;stroke-linecap:butt;stroke-miterlimit:10;"/>
    </g>
    <path d="M4,203.4C4,207.043 6.957,210 10.6,210L129.4,210C133.043,210 136,207.043 136,203.4L136,10.6C136,6.957 133.043,4 129.4,4L10.6,4C6.957,4 4,6.957 4,10.6L4,203.4Z" style="fill:none;stroke:rgb(26,35,126);stroke-width:8.11px;stroke-linecap:round;stroke-linejoin:round;"/>
</svg>
