<?xml version="1.0" encoding="UTF-8" standalone="no"?>
<!DOCTYPE svg PUBLIC "-//W3C//DTD SVG 1.1//EN" "http://www.w3.org/Graphics/SVG/1.1/DTD/svg11.dtd">
<svg width="437px" height="619px" version="1.1" xmlns="http://www.w3.org/2000/svg" xmlns:xlink="http://www.w3.org/1999/xlink" xml:space="preserve" xmlns:serif="http://www.serif.com/" style="fill-rule:evenodd;clip-rule:evenodd;stroke-linejoin:round;">
    <g id="g4100">
        <g>
            <path id="rect3141" d="M432.25,33.358C432.25,17.155 419.095,4 402.892,4L33.358,4C17.155,4 4,17.155 4,33.358L4,584.892C4,601.095 17.155,614.25 33.358,614.25L402.892,614.25C419.095,614.25 432.25,601.095 432.25,584.892L432.25,33.358Z" style="fill:rgb(60,60,60);stroke:rgb(102,102,102);stroke-width:8px;"/>
            <path id="rect2818" d="M362.09,593.21L75.19,593.21C66.326,593.21 59.19,586.074 59.19,577.21C59.19,577.21 24.19,418.47 24.19,309.75C24.19,201.03 59.19,42.29 59.19,42.29C59.19,33.426 66.326,26.29 75.19,26.29L362.09,26.29C370.954,26.29 378.09,33.426 378.09,42.29C378.09,42.29 413.09,201.03 413.09,309.75C413.09,418.47 378.09,577.21 378.09,577.21C378.09,586.074 370.954,593.21 362.09,593.21Z" style="fill-rule:nonzero;"/>
            <path id="path2821" d="M362.09,458.93L75.19,458.93C66.326,458.93 63.231,455.252 59.19,446.72C59.19,446.72 32.19,390.783 32.19,311.22C32.19,231.662 59.19,38.49 59.19,38.49C59.19,31.726 66.326,26.28 75.19,26.28L362.09,26.28C370.954,26.28 378.09,31.726 378.09,38.49C378.09,38.49 405.09,231.66 405.09,311.22C405.09,390.778 378.09,446.72 378.09,446.72C378.09,453.484 370.954,458.93 362.09,458.93Z" style="fill:rgb(60,60,60);fill-rule:nonzero;"/>
            <path id="rect2829" d="M364.67,591.22L73.81,591.22C67.3,591.22 62.381,586.289 62.381,579.791L68.381,472.651C68.381,466.402 73.568,461.222 79.81,461.222L358.67,461.222C364.912,461.222 370.098,466.402 370.098,472.651L376.098,579.791C376.098,586.288 371.18,591.22 364.67,591.22Z" style="fill:white;fill-opacity:0.14;fill-rule:nonzero;"/>
            <path id="path3697" d="M38.047,295.85C174.877,295.85 300.807,273.164 400.867,235.1C393.267,147.197 378.077,38.51 378.077,38.51C378.077,31.746 370.947,26.291 362.077,26.291L75.177,26.291C66.307,26.291 59.177,31.745 59.177,38.51C59.177,38.51 35.307,209.3 32.457,295.82C34.327,295.828 36.177,295.851 38.047,295.851L38.047,295.85Z" style="fill:url(#_Linear1);fill-rule:nonzero;"/>
            <rect id="svg_15" x="207.62" y="77.759" width="21" height="126" style="fill:white;"/>
            <path id="path3679-1" d="M374.57,567.97C372.946,530.884 371.665,497.058 370.13,459.96C370.537,457.358 370.554,457.03 371.96,455.674C379.437,447.053 385.94,429.507 389.429,414.205C389.434,414.183 389.455,414.164 389.46,414.142C389.466,414.123 389.454,414.099 389.46,414.08C407.327,358.848 407.906,300.12 402.335,243.11C402.334,243.1 402.336,243.089 402.335,243.079C398.714,199.16 393.722,155.385 388.335,111.669C400.103,177.671 409.138,244.169 409.46,311.139C409.459,311.207 409.459,311.217 409.46,311.17C407.521,398.678 393.005,482.18 375.659,567.93C375.507,568.797 374.63,568.693 374.57,567.96L374.57,567.97Z" style="fill:rgb(204,204,207);fill-rule:nonzero;"/>
            <path id="path2825" d="M299.257,353.897C299.258,354.022 299.258,354.147 299.258,354.272C299.258,396.09 262.571,430.502 217.987,430.502C173.403,430.502 136.716,396.09 136.716,354.272C136.716,354.147 136.716,354.022 136.717,353.897C136.716,353.772 136.716,353.648 136.716,353.523C136.716,311.704 173.403,277.293 217.987,277.293C262.571,277.293 299.258,311.704 299.258,353.523C299.258,353.648 299.258,353.772 299.257,353.897Z" style="fill:none;fill-rule:nonzero;stroke:white;stroke-width:18.72px;stroke-linejoin:miter;"/>
        </g>
    </g>
    <defs>
        <linearGradient id="_Linear1" x1="0" y1="0" x2="1" y2="0" gradientUnits="userSpaceOnUse" gradientTransform="matrix(2.06697e-14,337.563,-337.563,2.06697e-14,216.649,26.2841)"><stop offset="0" style="stop-color:white;stop-opacity:0.28"/><stop offset="1" style="stop-color:white;stop-opacity:0"/></linearGradient>
    </defs>
</svg>
