<?xml version="1.0" encoding="UTF-8" standalone="no"?>
<!DOCTYPE svg PUBLIC "-//W3C//DTD SVG 1.1//EN" "http://www.w3.org/Graphics/SVG/1.1/DTD/svg11.dtd">
<svg width="437px" height="619px" version="1.1" xmlns="http://www.w3.org/2000/svg" xmlns:xlink="http://www.w3.org/1999/xlink" xml:space="preserve" xmlns:serif="http://www.serif.com/" style="fill-rule:evenodd;clip-rule:evenodd;stroke-linejoin:round;">
    <g id="g4055">
        <path id="rect3141" d="M432.25,33.358C432.25,17.155 419.095,4 402.892,4L33.358,4C17.155,4 4,17.155 4,33.358L4,584.892C4,601.095 17.155,614.25 33.358,614.25L402.892,614.25C419.095,614.25 432.25,601.095 432.25,584.892L432.25,33.358Z" style="fill:rgb(60,60,60);stroke:rgb(102,102,102);stroke-width:8px;"/>
        <path id="rect2818" d="M75.189,26.286L362.089,26.286C370.953,26.286 378.089,33.422 378.089,42.286C378.089,42.286 413.089,201.026 413.089,309.746C413.089,418.466 378.089,577.206 378.089,577.206C378.089,586.07 370.953,593.206 362.089,593.206L75.189,593.206C66.325,593.206 59.189,586.07 59.189,577.206C59.189,577.206 24.189,418.466 24.189,309.746C24.189,201.026 59.189,42.286 59.189,42.286C59.189,33.422 66.325,26.286 75.189,26.286Z" style="fill-rule:nonzero;"/>
        <path id="path2821" d="M75.189,160.57L362.089,160.57C370.953,160.57 374.048,164.248 378.089,172.78C378.089,172.78 405.089,228.717 405.089,308.28C405.089,387.838 378.089,581.01 378.089,581.01C378.089,587.774 370.953,593.22 362.089,593.22L75.189,593.22C66.325,593.22 59.189,587.774 59.189,581.01C59.189,581.01 32.189,387.84 32.189,308.28C32.189,228.722 59.189,172.78 59.189,172.78C59.189,166.016 66.325,160.57 75.189,160.57Z" style="fill:rgb(60,60,60);fill-rule:nonzero;"/>
        <path id="path2825" d="M299.757,479.988C299.758,480.126 299.758,480.264 299.758,480.401C299.758,526.522 263.071,564.474 218.487,564.474C173.903,564.474 137.216,526.522 137.216,480.401C137.216,480.264 137.216,480.126 137.217,479.988C137.216,479.851 137.216,479.713 137.216,479.575C137.216,433.454 173.903,395.503 218.487,395.503C263.071,395.503 299.758,433.454 299.758,479.575C299.758,479.713 299.758,479.851 299.757,479.988Z" style="fill:none;fill-rule:nonzero;stroke:white;stroke-width:19.62px;stroke-linejoin:miter;"/>
        <rect id="rect2827" x="208.84" y="195.58" width="21" height="112.99" style="fill:white;"/>
        <path id="rect2829" d="M72.604,28.277L363.464,28.277C369.974,28.277 374.893,33.209 374.893,39.706L368.893,146.846C368.893,153.095 363.706,158.275 357.464,158.275L78.604,158.275C72.362,158.275 67.176,153.095 67.176,146.846L61.176,39.706C61.176,33.209 66.094,28.277 72.604,28.277Z" style="fill:white;fill-opacity:0.14;fill-rule:nonzero;"/>
        <path id="path3679" d="M376.29,47.859C374.665,84.945 373.385,118.771 371.85,155.869C372.257,158.471 372.274,158.799 373.679,160.155C381.156,168.776 387.66,186.323 391.148,201.625C391.153,201.647 391.174,201.665 391.179,201.687C391.185,201.706 391.173,201.731 391.179,201.75C409.046,256.982 409.625,315.71 404.054,372.72C404.054,372.73 404.055,372.741 404.054,372.751C400.433,416.67 395.441,460.444 390.054,504.161C401.822,438.159 410.857,371.661 411.179,304.691C411.178,304.623 411.178,304.613 411.179,304.66C409.24,217.152 394.724,133.65 377.379,47.9C377.227,47.034 376.35,47.138 376.29,47.87L376.29,47.859Z" style="fill:rgb(204,204,207);fill-rule:nonzero;"/>
        <path id="path3697" d="M399.22,323.65C262.39,323.65 136.46,346.336 36.41,384.4C44.002,472.304 59.191,580.99 59.191,580.99C59.191,587.754 66.327,593.209 75.191,593.209L362.101,593.209C370.965,593.209 378.101,587.755 378.101,580.99C378.101,580.99 401.974,410.2 404.82,323.68C402.954,323.672 401.097,323.649 399.226,323.649L399.22,323.65Z" style="fill:url(#_Linear1);fill-rule:nonzero;"/>
    </g>
    <defs>
        <linearGradient id="_Linear1" x1="0" y1="0" x2="1" y2="0" gradientUnits="userSpaceOnUse" gradientTransform="matrix(2.067e-14,-337.566,337.566,2.067e-14,220.6,593.216)"><stop offset="0" style="stop-color:white;stop-opacity:0.28"/><stop offset="1" style="stop-color:white;stop-opacity:0"/></linearGradient>
    </defs>
</svg>
