<?xml version="1.0" encoding="UTF-8" standalone="no"?>
<!DOCTYPE svg PUBLIC "-//W3C//DTD SVG 1.1//EN" "http://www.w3.org/Graphics/SVG/1.1/DTD/svg11.dtd">
<svg width="280px" height="428px" version="1.1" xmlns="http://www.w3.org/2000/svg" xmlns:xlink="http://www.w3.org/1999/xlink" xml:space="preserve" xmlns:serif="http://www.serif.com/" style="fill-rule:evenodd;clip-rule:evenodd;stroke-linecap:round;stroke-miterlimit:1.5;">
    <rect x="90" y="238" width="100" height="100" style="fill:white;stroke:black;stroke-width:13.33px;"/>
    <rect x="90" y="90" width="100" height="100" style="fill:white;stroke:black;stroke-width:13.33px;"/>
    <path d="M140,338L140,420" style="fill:none;stroke:black;stroke-width:13.33px;stroke-linecap:butt;stroke-linejoin:round;"/>
    <path d="M140,8L140,90" style="fill:none;stroke:black;stroke-width:13.33px;stroke-linejoin:round;"/>
    <text x="112.51px" y="323.327px" style="font-family:'ArialMT', 'Arial', sans-serif;font-size:100px;">0</text>
    <g transform="matrix(-1,0,0,-1,391.086,330.449)">
        <text x="227.014px" y="226.386px" style="font-family:'ArialMT', 'Arial', sans-serif;font-size:100px;">1</text>
    </g>
    <path d="M8,406.8C8,414.085 13.915,420 21.2,420L258.8,420C266.085,420 272,414.085 272,406.8L272,21.2C272,13.915 266.085,8 258.8,8L21.2,8C13.915,8 8,13.915 8,21.2L8,406.8Z" style="fill:none;stroke:rgb(128,128,128);stroke-width:16.21px;stroke-linejoin:round;"/>
</svg>
