<?xml version="1.0" encoding="UTF-8" standalone="no"?>
<!DOCTYPE svg PUBLIC "-//W3C//DTD SVG 1.1//EN" "http://www.w3.org/Graphics/SVG/1.1/DTD/svg11.dtd">
<svg width="640px" height="360px" version="1.1" xmlns="http://www.w3.org/2000/svg" xmlns:xlink="http://www.w3.org/1999/xlink" xml:space="preserve" xmlns:serif="http://www.serif.com/" style="fill-rule:evenodd;clip-rule:evenodd;stroke-linecap:round;stroke-linejoin:round;stroke-miterlimit:1.5;">
    <g>
        <path d="M352,279.05C352,277.919 351.081,277 349.95,277L290.05,277C288.919,277 288,277.919 288,279.05L288,315.95C288,317.081 288.919,318 290.05,318L349.95,318C351.081,318 352,317.081 352,315.95L352,279.05Z" style="fill:rgb(235,235,235);stroke:black;stroke-width:2px;"/>
        <g transform="matrix(0.941176,0,0,0.953488,4.69943,10.729)">
            <text x="307.726px" y="297.666px" style="font-family:'ArialMT', 'Arial', sans-serif;font-size:12px;">Nachzieh-</text>
            <text x="318.727px" y="310.059px" style="font-family:'ArialMT', 'Arial', sans-serif;font-size:12px;">stapel</text>
        </g>
    </g>
    <g id="Bit">
        <path d="M349.95,261.01C351.081,261.01 352,260.091 352,258.959L352,222.05C352,220.919 351.081,220 349.95,220L290.05,220C288.919,220 288,220.919 288,222.05L288,258.959C288,260.091 288.919,261.01 290.05,261.01L349.95,261.01Z" style="fill:rgb(165,214,167);"/>
        <g id="One">
            <path d="M288.621,240.505L297.631,240.505" style="fill:none;stroke:black;stroke-width:1.81px;stroke-linecap:square;"/>
            <path d="M313.476,248.272L313.476,232.738L297.942,232.738L297.942,248.272L313.476,248.272Z" style="fill:white;stroke:black;stroke-width:1.81px;stroke-linecap:square;stroke-linejoin:miter;"/>
            <g id="One1" serif:id="One" transform="matrix(6.12323e-17,1,-1,6.12323e-17,541.066,-78.1878)">
                <text x="314.516px" y="240.94px" style="font-family:'Helvetica';font-size:15.534px;">1</text>
            </g>
        </g>
        <g id="Zero">
            <path d="M342.99,240.505L352,240.505" style="fill:none;stroke:black;stroke-width:1.81px;stroke-linecap:square;"/>
            <path d="M342.99,248.272L342.99,232.738L327.456,232.738L327.456,248.272L342.99,248.272Z" style="fill:white;stroke:black;stroke-width:1.81px;stroke-linecap:square;stroke-linejoin:miter;"/>
            <g id="Zero1" serif:id="Zero" transform="matrix(6.12323e-17,1,-1,6.12323e-17,570.825,-108.058)">
                <text x="344.33px" y="240.885px" style="font-family:'Helvetica';font-size:15.534px;">0</text>
            </g>
        </g>
        <path d="M349.95,261.01C351.081,261.01 352,260.091 352,258.959L352,222.05C352,220.919 351.081,220 349.95,220L290.05,220C288.919,220 288,220.919 288,222.05L288,258.959C288,260.091 288.919,261.01 290.05,261.01L349.95,261.01Z" style="fill:none;stroke:rgb(27,94,32);stroke-width:2.52px;"/>
    </g>
    <g id="Bit1" serif:id="Bit">
        <path d="M290.05,171C288.919,171 288,171.919 288,173.05L288,209.959C288,211.091 288.919,212.01 290.05,212.01L349.95,212.01C351.081,212.01 352,211.091 352,209.959L352,173.05C352,171.919 351.081,171 349.95,171L290.05,171Z" style="fill:rgb(165,214,167);"/>
        <g id="One2" serif:id="One">
            <path d="M351.379,191.505L342.369,191.505" style="fill:none;stroke:black;stroke-width:1.81px;stroke-linecap:square;"/>
            <path d="M326.524,183.738L326.524,199.272L342.058,199.272L342.058,183.738L326.524,183.738Z" style="fill:white;stroke:black;stroke-width:1.81px;stroke-linecap:square;stroke-linejoin:miter;"/>
            <g id="One3" serif:id="One" transform="matrix(6.12323e-17,-1,1,6.12323e-17,129.802,530.943)">
                <text x="335.262px" y="210.071px" style="font-family:'Helvetica';font-size:15.534px;">1</text>
            </g>
        </g>
        <g id="Zero2" serif:id="Zero">
            <path d="M297.01,191.505L288,191.505" style="fill:none;stroke:black;stroke-width:1.81px;stroke-linecap:square;"/>
            <path d="M297.01,183.738L297.01,199.272L312.544,199.272L312.544,183.738L297.01,183.738Z" style="fill:white;stroke:black;stroke-width:1.81px;stroke-linecap:square;stroke-linejoin:miter;"/>
            <g id="Zero3" serif:id="Zero" transform="matrix(6.12323e-17,-1,1,6.12323e-17,99.9328,501.185)">
                <text x="305.447px" y="210.127px" style="font-family:'Helvetica';font-size:15.534px;">0</text>
            </g>
        </g>
        <path d="M290.05,171C288.919,171 288,171.919 288,173.05L288,209.959C288,211.091 288.919,212.01 290.05,212.01L349.95,212.01C351.081,212.01 352,211.091 352,209.959L352,173.05C352,171.919 351.081,171 349.95,171L290.05,171Z" style="fill:none;stroke:rgb(27,94,32);stroke-width:2.52px;"/>
    </g>
    <g id="Bit2" serif:id="Bit">
        <path d="M349.95,163.01C351.081,163.01 352,162.091 352,160.959L352,124.05C352,122.919 351.081,122 349.95,122L290.05,122C288.919,122 288,122.919 288,124.05L288,160.959C288,162.091 288.919,163.01 290.05,163.01L349.95,163.01Z" style="fill:rgb(165,214,167);"/>
        <g id="One4" serif:id="One">
            <path d="M288.621,142.505L297.631,142.505" style="fill:none;stroke:black;stroke-width:1.81px;stroke-linecap:square;"/>
            <path d="M313.476,150.272L313.476,134.738L297.942,134.738L297.942,150.272L313.476,150.272Z" style="fill:white;stroke:black;stroke-width:1.81px;stroke-linecap:square;stroke-linejoin:miter;"/>
            <g id="One5" serif:id="One" transform="matrix(6.12323e-17,1,-1,6.12323e-17,443.066,-176.188)">
                <text x="314.516px" y="142.94px" style="font-family:'Helvetica';font-size:15.534px;">1</text>
            </g>
        </g>
        <g id="Zero4" serif:id="Zero">
            <path d="M342.99,142.505L352,142.505" style="fill:none;stroke:black;stroke-width:1.81px;stroke-linecap:square;"/>
            <path d="M342.99,150.272L342.99,134.738L327.456,134.738L327.456,150.272L342.99,150.272Z" style="fill:white;stroke:black;stroke-width:1.81px;stroke-linecap:square;stroke-linejoin:miter;"/>
            <g id="Zero5" serif:id="Zero" transform="matrix(6.12323e-17,1,-1,6.12323e-17,472.825,-206.058)">
                <text x="344.33px" y="142.885px" style="font-family:'Helvetica';font-size:15.534px;">0</text>
            </g>
        </g>
        <path d="M349.95,163.01C351.081,163.01 352,162.091 352,160.959L352,124.05C352,122.919 351.081,122 349.95,122L290.05,122C288.919,122 288,122.919 288,124.05L288,160.959C288,162.091 288.919,163.01 290.05,163.01L349.95,163.01Z" style="fill:none;stroke:rgb(27,94,32);stroke-width:2.52px;"/>
    </g>
    <g id="Bit3" serif:id="Bit">
        <path d="M349.95,114.01C351.081,114.01 352,113.091 352,111.959L352,75.05C352,73.919 351.081,73 349.95,73L290.05,73C288.919,73 288,73.919 288,75.05L288,111.959C288,113.091 288.919,114.01 290.05,114.01L349.95,114.01Z" style="fill:rgb(165,214,167);"/>
        <g id="One6" serif:id="One">
            <path d="M288.621,93.505L297.631,93.505" style="fill:none;stroke:black;stroke-width:1.81px;stroke-linecap:square;"/>
            <path d="M313.476,101.272L313.476,85.738L297.942,85.738L297.942,101.272L313.476,101.272Z" style="fill:white;stroke:black;stroke-width:1.81px;stroke-linecap:square;stroke-linejoin:miter;"/>
            <g id="One7" serif:id="One" transform="matrix(6.12323e-17,1,-1,6.12323e-17,394.066,-225.188)">
                <text x="314.516px" y="93.94px" style="font-family:'Helvetica';font-size:15.534px;">1</text>
            </g>
        </g>
        <g id="Zero6" serif:id="Zero">
            <path d="M342.99,93.505L352,93.505" style="fill:none;stroke:black;stroke-width:1.81px;stroke-linecap:square;"/>
            <path d="M342.99,101.272L342.99,85.738L327.456,85.738L327.456,101.272L342.99,101.272Z" style="fill:white;stroke:black;stroke-width:1.81px;stroke-linecap:square;stroke-linejoin:miter;"/>
            <g id="Zero7" serif:id="Zero" transform="matrix(6.12323e-17,1,-1,6.12323e-17,423.825,-255.058)">
                <text x="344.33px" y="93.885px" style="font-family:'Helvetica';font-size:15.534px;">0</text>
            </g>
        </g>
        <path d="M349.95,114.01C351.081,114.01 352,113.091 352,111.959L352,75.05C352,73.919 351.081,73 349.95,73L290.05,73C288.919,73 288,73.919 288,75.05L288,111.959C288,113.091 288.919,114.01 290.05,114.01L349.95,114.01Z" style="fill:none;stroke:rgb(27,94,32);stroke-width:2.52px;"/>
    </g>
    <g>
        <path d="M352,18.05C352,16.919 351.081,16 349.95,16L290.05,16C288.919,16 288,16.919 288,18.05L288,54.95C288,56.081 288.919,57 290.05,57L349.95,57C351.081,57 352,56.081 352,54.95L352,18.05Z" style="fill:rgb(235,235,235);stroke:black;stroke-width:2px;"/>
        <g transform="matrix(0.941176,0,0,0.953488,11.1048,-250.201)">
            <text x="307.726px" y="297.666px" style="font-family:'ArialMT', 'Arial', sans-serif;font-size:12px;">Abwurf-</text>
            <text x="312.387px" y="310.059px" style="font-family:'ArialMT', 'Arial', sans-serif;font-size:12px;">stapel</text>
        </g>
    </g>
    <text x="480.889px" y="227.736px" style="font-family:'ArialMT', 'Arial', sans-serif;font-size:12px;">Handkarten Spieler*in 2</text>
    <text x="15.039px" y="205.736px" style="font-family:'ArialMT', 'Arial', sans-serif;font-size:12px;">Handkarten Spieler*in 1</text>
    <g>
        <path d="M80,114.05C80,112.919 79.081,112 77.95,112L18.05,112C16.919,112 16,112.919 16,114.05L16,150.95C16,152.081 16.919,153 18.05,153L77.95,153C79.081,153 80,152.081 80,150.95L80,114.05Z" style="fill:rgb(235,235,235);stroke:black;stroke-width:2px;"/>
        <path d="M84,126.05C84,124.919 83.081,124 81.95,124L22.05,124C20.919,124 20,124.919 20,126.05L20,162.95C20,164.081 20.919,165 22.05,165L81.95,165C83.081,165 84,164.081 84,162.95L84,126.05Z" style="fill:rgb(235,235,235);stroke:black;stroke-width:2px;"/>
        <path d="M88,138.05C88,136.919 87.081,136 85.95,136L26.05,136C24.919,136 24,136.919 24,138.05L24,174.95C24,176.081 24.919,177 26.05,177L85.95,177C87.081,177 88,176.081 88,174.95L88,138.05Z" style="fill:rgb(235,235,235);stroke:black;stroke-width:2px;"/>
        <path d="M92,150.05C92,148.919 91.081,148 89.95,148L30.05,148C28.919,148 28,148.919 28,150.05L28,186.95C28,188.081 28.919,189 30.05,189L89.95,189C91.081,189 92,188.081 92,186.95L92,150.05Z" style="fill:rgb(235,235,235);stroke:black;stroke-width:2px;"/>
    </g>
    <g>
        <path d="M543,206.071C543,207.203 543.919,208.121 545.05,208.121L604.95,208.121C606.081,208.121 607,207.203 607,206.071L607,169.171C607,168.04 606.081,167.121 604.95,167.121L545.05,167.121C543.919,167.121 543,168.04 543,169.171L543,206.071Z" style="fill:rgb(235,235,235);stroke:black;stroke-width:2px;"/>
        <path d="M539,194.071C539,195.203 539.919,196.121 541.05,196.121L600.95,196.121C602.081,196.121 603,195.203 603,194.071L603,157.171C603,156.04 602.081,155.121 600.95,155.121L541.05,155.121C539.919,155.121 539,156.04 539,157.171L539,194.071Z" style="fill:rgb(235,235,235);stroke:black;stroke-width:2px;"/>
        <path d="M535,182.071C535,183.203 535.919,184.121 537.05,184.121L596.95,184.121C598.081,184.121 599,183.203 599,182.071L599,145.171C599,144.04 598.081,143.121 596.95,143.121L537.05,143.121C535.919,143.121 535,144.04 535,145.171L535,182.071Z" style="fill:rgb(235,235,235);stroke:black;stroke-width:2px;"/>
        <path d="M531,170.071C531,171.203 531.919,172.121 533.05,172.121L592.95,172.121C594.081,172.121 595,171.203 595,170.071L595,133.171C595,132.04 594.081,131.121 592.95,131.121L533.05,131.121C531.919,131.121 531,132.04 531,133.171L531,170.071Z" style="fill:rgb(235,235,235);stroke:black;stroke-width:2px;"/>
    </g>
</svg>
