<?xml version="1.0" encoding="UTF-8" standalone="no"?>
<!DOCTYPE svg PUBLIC "-//W3C//DTD SVG 1.1//EN" "http://www.w3.org/Graphics/SVG/1.1/DTD/svg11.dtd">
<svg width="322px" height="67px" version="1.1" xmlns="http://www.w3.org/2000/svg" xmlns:xlink="http://www.w3.org/1999/xlink" xml:space="preserve" xmlns:serif="http://www.serif.com/" style="fill-rule:evenodd;clip-rule:evenodd;stroke-linecap:round;stroke-linejoin:round;stroke-miterlimit:1.5;">
    <g id="Temperatursensor">
        <g>
            <path d="M34.561,43.144L34.561,14.59C34.561,11.82 32.295,9.554 29.525,9.554C26.755,9.554 24.489,11.82 24.489,14.59L24.489,43.144C22.626,44.655 21.468,46.971 21.468,49.388C21.468,53.82 25.094,57.446 29.525,57.446C33.957,57.446 37.532,53.82 37.532,49.388C37.532,46.971 36.424,44.655 34.561,43.144ZM29.525,55.734C26.05,55.734 23.23,52.913 23.23,49.439C23.23,47.223 24.389,45.209 26.252,44.05L26.252,14.64C26.252,12.828 27.712,11.317 29.576,11.317C31.389,11.317 32.899,12.777 32.899,14.64L32.899,44.05C34.712,45.209 35.921,47.223 35.921,49.439C35.82,52.913 33,55.734 29.525,55.734Z" style="fill-rule:nonzero;"/>
            <path d="M31.086,45.108L31.086,14.64C31.086,13.784 30.381,13.079 29.525,13.079C28.669,13.079 27.964,13.784 27.964,14.64L27.964,45.108C26.202,45.762 24.943,47.424 24.943,49.388C24.943,51.906 27.007,53.971 29.525,53.971C32.043,53.971 34.108,51.906 34.108,49.388C34.108,47.424 32.849,45.762 31.086,45.108Z" style="fill-rule:nonzero;"/>
            <rect x="36.324" y="14.691" width="8.209" height="1.712"/>
            <rect x="36.324" y="20.381" width="3.878" height="1.712"/>
            <rect x="36.324" y="26.122" width="8.209" height="1.712"/>
            <rect x="36.324" y="31.813" width="3.878" height="1.712"/>
            <rect x="36.324" y="37.504" width="8.209" height="1.712"/>
        </g>
        <circle cx="33" cy="33.5" r="32" style="fill:none;stroke:black;stroke-width:2px;"/>
    </g>
    <g>
        <g>
            <path d="M300.671,35.764L299.443,35.764L299.443,28.393L300.671,28.393L300.671,25.943C300.671,23.225 302.877,21.021 305.586,21.021C308.3,21.021 310.5,23.217 310.5,25.943L310.5,48.043C310.5,50.761 308.294,52.964 305.586,52.964C302.874,52.964 300.675,50.772 300.671,48.05L299.443,48.05L299.443,40.679L300.671,40.679L300.671,35.764ZM289.614,35.764L288.386,35.764L288.386,28.393L289.614,28.393L289.614,25.943C289.614,23.225 291.82,21.021 294.529,21.021C297.243,21.021 299.443,23.217 299.443,25.943L299.443,48.043C299.443,50.761 297.237,52.964 294.529,52.964C291.817,52.964 289.618,50.772 289.614,48.05L288.386,48.05L288.386,40.679L289.614,40.679L289.614,35.764ZM278.557,35.764L277.329,35.764L277.329,28.393L278.557,28.393L278.557,25.943C278.557,23.225 280.763,21.021 283.471,21.021C286.186,21.021 288.386,23.217 288.386,25.943L288.386,48.043C288.386,50.761 286.18,52.964 283.471,52.964C280.76,52.964 278.561,50.772 278.557,48.05L277.329,48.05L277.329,40.679L278.557,40.679L278.557,35.764ZM299.315,16.708C299.401,16.993 299.449,17.276 299.442,17.523C299.438,17.682 299.393,17.79 299.223,18.073C299.219,18.081 299.219,18.081 299.214,18.088C298.94,18.545 298.83,18.82 298.829,19.259C298.828,19.705 298.9,19.965 299.182,20.643C299.313,20.956 299.672,21.105 299.986,20.974C300.299,20.844 300.447,20.484 300.317,20.171C300.092,19.632 300.057,19.504 300.057,19.262C300.058,19.105 300.1,19 300.268,18.72C300.272,18.713 300.272,18.713 300.277,18.705C300.548,18.253 300.658,17.988 300.67,17.558C300.682,17.161 300.612,16.754 300.491,16.353C300.425,16.133 300.357,15.959 300.308,15.852C300.167,15.543 299.803,15.407 299.494,15.549C299.185,15.69 299.05,16.054 299.191,16.363C299.219,16.423 299.266,16.546 299.315,16.708ZM272.414,21.021C275.128,21.021 277.329,23.217 277.329,25.943L277.329,48.043C277.329,50.761 275.123,52.964 272.414,52.964C269.7,52.964 267.5,50.769 267.5,48.043L267.5,25.943C267.5,23.225 269.706,21.021 272.414,21.021ZM269.957,48.043C269.957,49.409 271.055,50.507 272.414,50.507C273.767,50.507 274.871,49.402 274.871,48.043L274.871,25.943C274.871,24.577 273.774,23.479 272.414,23.479C271.061,23.479 269.957,24.583 269.957,25.943L269.957,48.043ZM281.014,48.043C281.014,49.409 282.112,50.507 283.471,50.507C284.825,50.507 285.929,49.402 285.929,48.043L285.929,25.943C285.929,24.577 284.831,23.479 283.471,23.479C282.118,23.479 281.014,24.583 281.014,25.943L281.014,48.043ZM292.071,48.043C292.071,49.409 293.169,50.507 294.529,50.507C295.882,50.507 296.986,49.402 296.986,48.043L296.986,25.943C296.986,24.577 295.888,23.479 294.529,23.479C293.175,23.479 292.071,24.583 292.071,25.943L292.071,48.043ZM303.129,48.043C303.129,49.409 304.226,50.507 305.586,50.507C306.939,50.507 308.043,49.402 308.043,48.043L308.043,25.943C308.043,24.577 306.945,23.479 305.586,23.479C304.233,23.479 303.129,24.583 303.129,25.943L303.129,48.043ZM276.894,16.353C276.773,16.754 276.704,17.161 276.715,17.558C276.728,17.988 276.838,18.253 277.109,18.705C277.114,18.713 277.114,18.713 277.118,18.72C277.286,19 277.328,19.105 277.329,19.262C277.329,19.504 277.294,19.632 277.069,20.171C276.939,20.484 277.087,20.844 277.4,20.974C277.713,21.105 278.073,20.956 278.203,20.643C278.486,19.965 278.558,19.705 278.557,19.259C278.556,18.82 278.445,18.545 278.172,18.088C278.167,18.081 278.167,18.081 278.163,18.073C277.993,17.79 277.948,17.682 277.944,17.523C277.936,17.276 277.985,16.993 278.07,16.708C278.119,16.546 278.167,16.423 278.195,16.363C278.336,16.054 278.2,15.69 277.892,15.549C277.583,15.407 277.219,15.543 277.078,15.852C277.028,15.959 276.961,16.133 276.894,16.353ZM288.733,14.535C288.913,15.004 289.014,15.468 288.999,15.88C288.988,16.176 288.88,16.381 288.511,16.863C288.502,16.875 288.502,16.875 288.493,16.887C287.975,17.566 287.773,17.96 287.771,18.604C287.77,19.272 287.905,19.655 288.456,20.695C288.615,20.995 288.987,21.109 289.287,20.95C289.586,20.791 289.701,20.419 289.542,20.12C289.079,19.245 288.999,19.02 289,18.607C289.001,18.314 289.106,18.11 289.47,17.633C289.479,17.621 289.479,17.621 289.488,17.609C290.003,16.935 290.203,16.554 290.226,15.925C290.248,15.324 290.114,14.705 289.88,14.095C289.752,13.76 289.622,13.5 289.53,13.341C289.359,13.048 288.983,12.948 288.69,13.119C288.397,13.29 288.297,13.666 288.468,13.959C288.53,14.065 288.631,14.268 288.733,14.535Z"/>
        </g>
        <rect x="257" y="1" width="64" height="64" style="fill:none;stroke:black;stroke-width:2px;"/>
    </g>
    <g>
        <g>
            <path d="M129,16.5L169,32.5L129,48.5L129,16.5Z" style="fill:white;fill-rule:nonzero;stroke:black;stroke-width:2px;stroke-linecap:square;stroke-linejoin:miter;stroke-miterlimit:10;"/>
            <path d="M185,32.5C185,36.889 181.389,40.5 177,40.5C172.611,40.5 169,36.889 169,32.5C169,28.111 172.611,24.5 177,24.5C181.386,24.5 184.996,28.106 185,32.492" style="fill:white;fill-rule:nonzero;stroke:black;stroke-width:1.63px;stroke-linecap:butt;stroke-linejoin:miter;stroke-miterlimit:10;"/>
        </g>
    </g>
    <path d="M65,32.5L129,33.5" style="fill:none;stroke:black;stroke-width:2px;stroke-linecap:square;stroke-linejoin:miter;"/>
    <path d="M185,32.5L257,32.5" style="fill:none;stroke:black;stroke-width:2px;stroke-linecap:square;stroke-linejoin:miter;"/>
</svg>
