<?xml version="1.0" encoding="UTF-8" standalone="no"?>
<!DOCTYPE svg PUBLIC "-//W3C//DTD SVG 1.1//EN" "http://www.w3.org/Graphics/SVG/1.1/DTD/svg11.dtd">
<svg width="322px" height="162px" version="1.1" xmlns="http://www.w3.org/2000/svg" xmlns:xlink="http://www.w3.org/1999/xlink" xml:space="preserve" xmlns:serif="http://www.serif.com/" style="fill-rule:evenodd;clip-rule:evenodd;stroke-linecap:round;stroke-linejoin:round;stroke-miterlimit:1.5;">
    <g id="Licht">
        <path d="M277,119.8L272.74,115.56L275.56,112.74L279.8,117L277,119.8M291,108L291,114L287,114L287,108L291,108M305.26,115.56L301,119.8L298.2,117L302.44,112.74L305.26,115.56M274,127L274,131L268,131L268,127L274,127M304,127L310,127L310,131L304,131L304,127M277,146L301,146C303.194,146 305,147.806 305,150L273,150C273,147.806 274.806,146 277,146M289,116C295.583,116 301,121.417 301,128L301,144L277,144L277,128C277,121.417 282.417,116 289,116M289,120C284.611,120 281,123.611 281,128L281,140L297,140L297,128C297,123.611 293.389,120 289,120Z" style="fill-rule:nonzero;"/>
        <rect x="257" y="97" width="64" height="64" style="fill:none;stroke:black;stroke-width:2px;"/>
    </g>
    <g id="Ton">
        <path d="M293,15.46L293,19.58C298.78,21.3 303,26.66 303,33C303,39.34 298.78,44.68 293,46.4L293,50.54C301,48.72 307,41.56 307,33C307,24.44 301,17.28 293,15.46M298,33C298,29.46 296,26.42 293,24.94L293,41C296,39.58 298,36.52 298,33M271,27L271,39L279,39L289,49L289,17L279,27L271,27Z" style="fill-rule:nonzero;"/>
        <rect x="257" y="1" width="64" height="64" style="fill:none;stroke:black;stroke-width:2px;"/>
    </g>
    <g id="Temperatursensor">
        <g>
            <path d="M34.561,90.644L34.561,62.09C34.561,59.32 32.295,57.054 29.525,57.054C26.755,57.054 24.489,59.32 24.489,62.09L24.489,90.644C22.626,92.155 21.468,94.471 21.468,96.888C21.468,101.32 25.094,104.946 29.525,104.946C33.957,104.946 37.532,101.32 37.532,96.888C37.532,94.471 36.424,92.155 34.561,90.644ZM29.525,103.234C26.05,103.234 23.23,100.413 23.23,96.939C23.23,94.723 24.389,92.708 26.252,91.55L26.252,62.14C26.252,60.328 27.712,58.817 29.576,58.817C31.389,58.817 32.899,60.277 32.899,62.14L32.899,91.55C34.712,92.708 35.921,94.723 35.921,96.939C35.82,100.413 33,103.234 29.525,103.234Z" style="fill-rule:nonzero;"/>
            <path d="M31.086,92.608L31.086,62.14C31.086,61.284 30.381,60.579 29.525,60.579C28.669,60.579 27.964,61.284 27.964,62.14L27.964,92.608C26.202,93.262 24.943,94.924 24.943,96.888C24.943,99.406 27.007,101.471 29.525,101.471C32.043,101.471 34.108,99.406 34.108,96.888C34.108,94.924 32.849,93.262 31.086,92.608Z" style="fill-rule:nonzero;"/>
            <rect x="36.324" y="62.191" width="8.209" height="1.712"/>
            <rect x="36.324" y="67.881" width="3.878" height="1.712"/>
            <rect x="36.324" y="73.622" width="8.209" height="1.712"/>
            <rect x="36.324" y="79.313" width="3.878" height="1.712"/>
            <rect x="36.324" y="85.004" width="8.209" height="1.712"/>
        </g>
        <circle cx="33" cy="81" r="32" style="fill:none;stroke:black;stroke-width:2px;"/>
    </g>
    <path d="M65,81L161,81L161,33L257,33" style="fill:none;stroke:black;stroke-width:2px;"/>
    <path d="M161,81L161,129L257,129" style="fill:none;stroke:black;stroke-width:2px;"/>
</svg>
