<?xml version="1.0" encoding="UTF-8" standalone="no"?>
<!DOCTYPE svg PUBLIC "-//W3C//DTD SVG 1.1//EN" "http://www.w3.org/Graphics/SVG/1.1/DTD/svg11.dtd">
<svg width="66px" height="66px" version="1.1" xmlns="http://www.w3.org/2000/svg" xmlns:xlink="http://www.w3.org/1999/xlink" xml:space="preserve" xmlns:serif="http://www.serif.com/" style="fill-rule:evenodd;clip-rule:evenodd;stroke-linecap:round;stroke-linejoin:round;stroke-miterlimit:1.5;">
    <g id="Taster">
        <path d="M33,19.5C28.776,19.5 24.969,19.966 22.092,20.797C20.654,21.212 19.442,21.718 18.482,22.375C17.523,23.032 16.67,23.991 16.67,25.281L16.67,31.094L13.997,31.094C13.945,31.091 13.893,31.091 13.841,31.094C13.207,31.156 12.678,31.615 12.528,32.234L9.544,44.641C9.515,44.758 9.5,44.879 9.5,45C9.5,45.822 10.175,46.498 10.997,46.5L55.003,46.5C55.825,46.498 56.5,45.822 56.5,45C56.5,44.879 56.485,44.758 56.456,44.641L53.472,32.234C53.306,31.562 52.695,31.088 52.003,31.094L49.33,31.094L49.33,25.281C49.33,23.991 48.477,23.032 47.518,22.375C46.558,21.718 45.346,21.212 43.908,20.797C41.031,19.966 37.224,19.5 33,19.5ZM33,22.5C36.992,22.5 40.595,22.97 43.08,23.687C44.322,24.046 45.277,24.476 45.814,24.844C46.076,25.023 46.204,25.157 46.267,25.234C46.116,25.389 45.839,25.63 45.377,25.875C44.684,26.243 43.67,26.621 42.439,26.937C39.976,27.571 36.641,27.969 33,27.969C29.359,27.969 26.024,27.571 23.561,26.937C22.33,26.621 21.316,26.243 20.623,25.875C20.169,25.634 19.886,25.405 19.733,25.25C19.794,25.174 19.917,25.028 20.186,24.844C20.723,24.476 21.678,24.046 22.92,23.687C25.405,22.97 29.008,22.5 33,22.5ZM19.67,28.75C20.573,29.177 21.621,29.522 22.811,29.828C25.598,30.545 29.138,30.969 33,30.969C36.862,30.969 40.402,30.545 43.189,29.828C44.379,29.522 45.427,29.177 46.33,28.75L46.33,35.875C46.311,35.897 46.217,36.052 45.814,36.328C45.277,36.696 44.322,37.126 43.08,37.484C40.595,38.202 36.992,38.672 33,38.672C29.008,38.672 25.405,38.202 22.92,37.484C21.678,37.126 20.723,36.696 20.186,36.328C19.799,36.064 19.694,35.923 19.67,35.891L19.67,28.75ZM15.169,34.094L16.67,34.094L16.67,35.891C16.67,37.181 17.523,38.14 18.482,38.797C19.442,39.454 20.654,39.944 22.092,40.359C24.969,41.19 28.776,41.672 33,41.672C37.224,41.672 41.031,41.19 43.908,40.359C45.346,39.944 46.558,39.454 47.518,38.797C48.477,38.14 49.33,37.181 49.33,35.891L49.33,34.094L50.831,34.094L53.097,43.5L12.903,43.5L15.169,34.094Z" style="fill-rule:nonzero;"/>
        <circle cx="33" cy="33" r="32" style="fill:none;stroke:black;stroke-width:2px;"/>
    </g>
</svg>
