<?xml version="1.0" encoding="UTF-8" standalone="no"?>
<!DOCTYPE svg PUBLIC "-//W3C//DTD SVG 1.1//EN" "http://www.w3.org/Graphics/SVG/1.1/DTD/svg11.dtd">
<svg width="288px" height="192px" version="1.1" xmlns="http://www.w3.org/2000/svg" xmlns:xlink="http://www.w3.org/1999/xlink" xml:space="preserve" xmlns:serif="http://www.serif.com/" style="fill-rule:evenodd;clip-rule:evenodd;stroke-linecap:square;stroke-linejoin:round;stroke-miterlimit:1.5;">
    <g id="Bit">
        <path d="M283.95,190.01C285.081,190.01 286,189.091 286,187.959L286,151.05C286,149.919 285.081,149 283.95,149L224.05,149C222.919,149 222,149.919 222,151.05L222,187.959C222,189.091 222.919,190.01 224.05,190.01L283.95,190.01Z" style="fill:rgb(165,214,167);"/>
        <g id="One">
            <path d="M222.621,169.505L231.631,169.505" style="fill:none;stroke:black;stroke-width:1.81px;"/>
            <path d="M247.476,177.272L247.476,161.738L231.942,161.738L231.942,177.272L247.476,177.272Z" style="fill:white;stroke:black;stroke-width:1.81px;stroke-linejoin:miter;"/>
            <g id="One1" serif:id="One" transform="matrix(6.12323e-17,1,-1,6.12323e-17,404.066,-83.1878)">
                <text x="248.516px" y="169.94px" style="font-family:'Helvetica';font-size:15.534px;">1</text>
            </g>
        </g>
        <g id="Zero">
            <path d="M276.99,169.505L286,169.505" style="fill:none;stroke:black;stroke-width:1.81px;"/>
            <path d="M276.99,177.272L276.99,161.738L261.456,161.738L261.456,177.272L276.99,177.272Z" style="fill:white;stroke:black;stroke-width:1.81px;stroke-linejoin:miter;"/>
            <g id="Zero1" serif:id="Zero" transform="matrix(6.12323e-17,1,-1,6.12323e-17,433.825,-113.058)">
                <text x="278.33px" y="169.885px" style="font-family:'Helvetica';font-size:15.534px;">0</text>
            </g>
        </g>
        <path d="M283.95,190.01C285.081,190.01 286,189.091 286,187.959L286,151.05C286,149.919 285.081,149 283.95,149L224.05,149C222.919,149 222,149.919 222,151.05L222,187.959C222,189.091 222.919,190.01 224.05,190.01L283.95,190.01Z" style="fill:none;stroke:rgb(27,94,32);stroke-width:2.52px;stroke-linecap:round;"/>
    </g>
    <g id="Bit1" serif:id="Bit">
        <path d="M224.05,100C222.919,100 222,100.919 222,102.05L222,138.959C222,140.091 222.919,141.01 224.05,141.01L283.95,141.01C285.081,141.01 286,140.091 286,138.959L286,102.05C286,100.919 285.081,100 283.95,100L224.05,100Z" style="fill:rgb(165,214,167);"/>
        <g id="One2" serif:id="One">
            <path d="M285.379,120.505L276.369,120.505" style="fill:none;stroke:black;stroke-width:1.81px;"/>
            <path d="M260.524,112.738L260.524,128.272L276.058,128.272L276.058,112.738L260.524,112.738Z" style="fill:white;stroke:black;stroke-width:1.81px;stroke-linejoin:miter;"/>
            <g id="One3" serif:id="One" transform="matrix(6.12323e-17,-1,1,6.12323e-17,134.802,393.943)">
                <text x="269.262px" y="139.071px" style="font-family:'Helvetica';font-size:15.534px;">1</text>
            </g>
        </g>
        <g id="Zero2" serif:id="Zero">
            <path d="M231.01,120.505L222,120.505" style="fill:none;stroke:black;stroke-width:1.81px;"/>
            <path d="M231.01,112.738L231.01,128.272L246.544,128.272L246.544,112.738L231.01,112.738Z" style="fill:white;stroke:black;stroke-width:1.81px;stroke-linejoin:miter;"/>
            <g id="Zero3" serif:id="Zero" transform="matrix(6.12323e-17,-1,1,6.12323e-17,104.933,364.185)">
                <text x="239.447px" y="139.127px" style="font-family:'Helvetica';font-size:15.534px;">0</text>
            </g>
        </g>
        <path d="M224.05,100C222.919,100 222,100.919 222,102.05L222,138.959C222,140.091 222.919,141.01 224.05,141.01L283.95,141.01C285.081,141.01 286,140.091 286,138.959L286,102.05C286,100.919 285.081,100 283.95,100L224.05,100Z" style="fill:none;stroke:rgb(27,94,32);stroke-width:2.52px;stroke-linecap:round;"/>
    </g>
    <g id="Bit2" serif:id="Bit">
        <path d="M283.95,92.01C285.081,92.01 286,91.091 286,89.959L286,53.05C286,51.919 285.081,51 283.95,51L224.05,51C222.919,51 222,51.919 222,53.05L222,89.959C222,91.091 222.919,92.01 224.05,92.01L283.95,92.01Z" style="fill:rgb(165,214,167);"/>
        <g id="One4" serif:id="One">
            <path d="M222.621,71.505L231.631,71.505" style="fill:none;stroke:black;stroke-width:1.81px;"/>
            <path d="M247.476,79.272L247.476,63.738L231.942,63.738L231.942,79.272L247.476,79.272Z" style="fill:white;stroke:black;stroke-width:1.81px;stroke-linejoin:miter;"/>
            <g id="One5" serif:id="One" transform="matrix(6.12323e-17,1,-1,6.12323e-17,306.066,-181.188)">
                <text x="248.516px" y="71.94px" style="font-family:'Helvetica';font-size:15.534px;">1</text>
            </g>
        </g>
        <g id="Zero4" serif:id="Zero">
            <path d="M276.99,71.505L286,71.505" style="fill:none;stroke:black;stroke-width:1.81px;"/>
            <path d="M276.99,79.272L276.99,63.738L261.456,63.738L261.456,79.272L276.99,79.272Z" style="fill:white;stroke:black;stroke-width:1.81px;stroke-linejoin:miter;"/>
            <g id="Zero5" serif:id="Zero" transform="matrix(6.12323e-17,1,-1,6.12323e-17,335.825,-211.058)">
                <text x="278.33px" y="71.885px" style="font-family:'Helvetica';font-size:15.534px;">0</text>
            </g>
        </g>
        <path d="M283.95,92.01C285.081,92.01 286,91.091 286,89.959L286,53.05C286,51.919 285.081,51 283.95,51L224.05,51C222.919,51 222,51.919 222,53.05L222,89.959C222,91.091 222.919,92.01 224.05,92.01L283.95,92.01Z" style="fill:none;stroke:rgb(27,94,32);stroke-width:2.52px;stroke-linecap:round;"/>
    </g>
    <g id="Bit3" serif:id="Bit">
        <path d="M283.95,43.01C285.081,43.01 286,42.091 286,40.959L286,4.05C286,2.919 285.081,2 283.95,2L224.05,2C222.919,2 222,2.919 222,4.05L222,40.959C222,42.091 222.919,43.01 224.05,43.01L283.95,43.01Z" style="fill:rgb(165,214,167);"/>
        <g id="One6" serif:id="One">
            <path d="M222.621,22.505L231.631,22.505" style="fill:none;stroke:black;stroke-width:1.81px;"/>
            <path d="M247.476,30.272L247.476,14.738L231.942,14.738L231.942,30.272L247.476,30.272Z" style="fill:white;stroke:black;stroke-width:1.81px;stroke-linejoin:miter;"/>
            <g id="One7" serif:id="One" transform="matrix(6.12323e-17,1,-1,6.12323e-17,257.066,-230.188)">
                <text x="248.516px" y="22.94px" style="font-family:'Helvetica';font-size:15.534px;">1</text>
            </g>
        </g>
        <g id="Zero6" serif:id="Zero">
            <path d="M276.99,22.505L286,22.505" style="fill:none;stroke:black;stroke-width:1.81px;"/>
            <path d="M276.99,30.272L276.99,14.738L261.456,14.738L261.456,30.272L276.99,30.272Z" style="fill:white;stroke:black;stroke-width:1.81px;stroke-linejoin:miter;"/>
            <g id="Zero7" serif:id="Zero" transform="matrix(6.12323e-17,1,-1,6.12323e-17,286.825,-260.058)">
                <text x="278.33px" y="22.885px" style="font-family:'Helvetica';font-size:15.534px;">0</text>
            </g>
        </g>
        <path d="M283.95,43.01C285.081,43.01 286,42.091 286,40.959L286,4.05C286,2.919 285.081,2 283.95,2L224.05,2C222.919,2 222,2.919 222,4.05L222,40.959C222,42.091 222.919,43.01 224.05,43.01L283.95,43.01Z" style="fill:none;stroke:rgb(27,94,32);stroke-width:2.52px;stroke-linecap:round;"/>
    </g>
    <g id="OR-1" serif:id="OR 1">
        <path d="M154.05,26C152.919,26 152,26.919 152,28.05L152,64.959C152,66.091 152.919,67.01 154.05,67.01L213.95,67.01C215.081,67.01 216,66.091 216,64.959L216,28.05C216,26.919 215.081,26 213.95,26L154.05,26Z" style="fill:rgb(159,168,218);"/>
        <path d="M215.379,65.767L207.922,52.097L195.495,52.097" style="fill:none;stroke:black;stroke-width:1.81px;stroke-linejoin:miter;"/>
        <path d="M215.379,27.243L207.922,40.913L195.495,40.913" style="fill:none;stroke:black;stroke-width:1.81px;stroke-linejoin:miter;"/>
        <path d="M180.583,46.421L152,46.421" style="fill:none;stroke:black;stroke-width:1.81px;"/>
        <path d="M155.728,38.738L155.728,54.272L171.262,54.272L171.262,38.738L155.728,38.738Z" style="fill:white;stroke:black;stroke-width:1.81px;stroke-linejoin:miter;"/>
        <g id="One8" serif:id="One" transform="matrix(6.12323e-17,1,-1,6.12323e-17,232.44,-189.299)">
            <text x="231.832px" y="74.353px" style="font-family:'Helvetica';font-size:15.534px;">1</text>
        </g>
        <path id="OR" d="M198.291,58.932C192.078,58.932 182.757,52.718 179.65,46.505C182.757,40.291 192.078,34.078 198.291,34.078C192.078,46.505 192.078,46.505 198.291,58.932Z" style="fill:white;fill-rule:nonzero;stroke:black;stroke-width:1.86px;stroke-linecap:butt;stroke-linejoin:miter;stroke-miterlimit:10;"/>
        <path d="M154.05,26C152.919,26 152,26.919 152,28.05L152,64.959C152,66.091 152.919,67.01 154.05,67.01L213.95,67.01C215.081,67.01 216,66.091 216,64.959L216,28.05C216,26.919 215.081,26 213.95,26L154.05,26Z" style="fill:none;stroke:rgb(26,35,126);stroke-width:2.52px;stroke-linecap:round;"/>
    </g>
    <g id="XOR-1" serif:id="XOR 1">
        <path d="M154.05,75C152.919,75 152,75.919 152,77.05L152,113.959C152,115.091 152.919,116.01 154.05,116.01L213.95,116.01C215.081,116.01 216,115.091 216,113.959L216,77.05C216,75.919 215.081,75 213.95,75L154.05,75Z" style="fill:rgb(159,168,218);"/>
        <path d="M215.379,114.767L207.922,101.097L195.495,101.097" style="fill:none;stroke:black;stroke-width:1.81px;stroke-linejoin:miter;"/>
        <path d="M215.379,76.243L207.922,89.913L195.495,89.913" style="fill:none;stroke:black;stroke-width:1.81px;stroke-linejoin:miter;"/>
        <path d="M180.583,95.421L152,95.421" style="fill:none;stroke:black;stroke-width:1.81px;"/>
        <path d="M155.728,87.738L155.728,103.272L171.262,103.272L171.262,87.738L155.728,87.738Z" style="fill:white;stroke:black;stroke-width:1.81px;stroke-linejoin:miter;"/>
        <g id="One9" serif:id="One" transform="matrix(6.12323e-17,1,-1,6.12323e-17,281.44,-140.299)">
            <text x="231.832px" y="123.353px" style="font-family:'Helvetica';font-size:15.534px;">1</text>
        </g>
        <g id="XOR">
            <path d="M193.92,107.848C187.817,107.848 178.663,101.745 175.612,95.642C178.663,89.54 187.817,83.437 193.92,83.437C187.817,95.642 187.817,95.642 193.92,107.848Z" style="fill:white;fill-rule:nonzero;stroke:black;stroke-width:1.83px;stroke-linecap:butt;stroke-linejoin:miter;stroke-miterlimit:10;"/>
            <path d="M199.905,107.681C195.957,104.812 193.615,100.217 193.615,95.337C193.615,90.457 195.957,85.862 199.905,82.994" style="fill:none;fill-rule:nonzero;stroke:black;stroke-width:1.83px;stroke-linecap:butt;stroke-linejoin:miter;stroke-miterlimit:10;"/>
        </g>
        <path d="M154.05,75C152.919,75 152,75.919 152,77.05L152,113.959C152,115.091 152.919,116.01 154.05,116.01L213.95,116.01C215.081,116.01 216,115.091 216,113.959L216,77.05C216,75.919 215.081,75 213.95,75L154.05,75Z" style="fill:none;stroke:rgb(26,35,126);stroke-width:2.52px;stroke-linecap:round;"/>
    </g>
    <g id="AND-0" serif:id="AND 0">
        <path d="M154.05,124C152.919,124 152,124.919 152,126.05L152,162.959C152,164.091 152.919,165.01 154.05,165.01L213.95,165.01C215.081,165.01 216,164.091 216,162.959L216,126.05C216,124.919 215.081,124 213.95,124L154.05,124Z" style="fill:rgb(159,168,218);"/>
        <path d="M215.379,163.767L207.922,150.097L195.495,150.097" style="fill:none;stroke:black;stroke-width:1.81px;stroke-linejoin:miter;"/>
        <path d="M215.379,125.243L207.922,138.913L195.495,138.913" style="fill:none;stroke:black;stroke-width:1.81px;stroke-linejoin:miter;"/>
        <path d="M180.583,144.421L152,144.421" style="fill:none;stroke:black;stroke-width:1.81px;"/>
        <path d="M155.728,136.738L155.728,152.272L171.262,152.272L171.262,136.738L155.728,136.738Z" style="fill:white;stroke:black;stroke-width:1.81px;stroke-linejoin:miter;"/>
        <g id="Zero8" serif:id="Zero" transform="matrix(6.12323e-17,1,-1,6.12323e-17,330.221,-91.7687)">
            <text x="231.957px" y="172.009px" style="font-family:'Helvetica';font-size:15.534px;">0</text>
        </g>
        <path id="AND" d="M200.466,156.932L194.252,156.932C187.435,156.932 181.825,151.322 181.825,144.505C181.825,137.688 187.435,132.078 194.252,132.078L200.466,132.078L200.466,156.932Z" style="fill:white;fill-rule:nonzero;stroke:black;stroke-width:1.86px;stroke-linecap:butt;stroke-linejoin:miter;stroke-miterlimit:10;"/>
        <path d="M154.05,124C152.919,124 152,124.919 152,126.05L152,162.959C152,164.091 152.919,165.01 154.05,165.01L213.95,165.01C215.081,165.01 216,164.091 216,162.959L216,126.05C216,124.919 215.081,124 213.95,124L154.05,124Z" style="fill:none;stroke:rgb(26,35,126);stroke-width:2.52px;stroke-linecap:round;"/>
    </g>
    <g id="NAND-1" serif:id="NAND 1">
        <path d="M83.05,99C81.919,99 81,99.919 81,101.05L81,137.959C81,139.091 81.919,140.01 83.05,140.01L142.95,140.01C144.081,140.01 145,139.091 145,137.959L145,101.05C145,99.919 144.081,99 142.95,99L83.05,99Z" style="fill:rgb(159,168,218);"/>
        <path d="M144.379,138.767L136.922,125.097L124.495,125.097" style="fill:none;stroke:black;stroke-width:1.81px;stroke-linejoin:miter;"/>
        <path d="M144.379,100.243L136.922,113.913L124.495,113.913" style="fill:none;stroke:black;stroke-width:1.81px;stroke-linejoin:miter;"/>
        <path d="M109.583,119.421L81,119.421" style="fill:none;stroke:black;stroke-width:1.81px;"/>
        <path d="M84.728,111.738L84.728,127.272L100.262,127.272L100.262,111.738L84.728,111.738Z" style="fill:white;stroke:black;stroke-width:1.81px;stroke-linejoin:miter;"/>
        <g id="One10" serif:id="One" transform="matrix(6.12323e-17,1,-1,6.12323e-17,234.44,-45.2994)">
            <text x="160.832px" y="147.353px" style="font-family:'Helvetica';font-size:15.534px;">1</text>
        </g>
        <g id="NAND">
            <path d="M129.466,131.932L123.252,131.932C116.435,131.932 110.825,126.322 110.825,119.505C110.825,112.688 116.435,107.078 123.252,107.078L129.466,107.078L129.466,131.932Z" style="fill:white;fill-rule:nonzero;stroke:black;stroke-width:1.86px;stroke-linecap:butt;stroke-linejoin:miter;stroke-miterlimit:10;"/>
            <path d="M104.612,119.505C104.612,117.801 106.014,116.398 107.718,116.398C109.423,116.398 110.825,117.801 110.825,119.505C110.825,121.209 109.423,122.612 107.718,122.612C106.015,122.612 104.613,121.211 104.612,119.508" style="fill:white;fill-rule:nonzero;stroke:black;stroke-width:1.86px;stroke-linecap:butt;stroke-linejoin:miter;stroke-miterlimit:10;"/>
        </g>
        <path d="M83.05,99C81.919,99 81,99.919 81,101.05L81,137.959C81,139.091 81.919,140.01 83.05,140.01L142.95,140.01C144.081,140.01 145,139.091 145,137.959L145,101.05C145,99.919 144.081,99 142.95,99L83.05,99Z" style="fill:none;stroke:rgb(26,35,126);stroke-width:2.52px;stroke-linecap:round;"/>
    </g>
    <g id="AND-1" serif:id="AND 1">
        <path d="M83.05,50C81.919,50 81,50.919 81,52.05L81,88.959C81,90.091 81.919,91.01 83.05,91.01L142.95,91.01C144.081,91.01 145,90.091 145,88.959L145,52.05C145,50.919 144.081,50 142.95,50L83.05,50Z" style="fill:rgb(159,168,218);"/>
        <path d="M144.379,89.767L136.922,76.097L124.495,76.097" style="fill:none;stroke:black;stroke-width:1.81px;stroke-linejoin:miter;"/>
        <path d="M144.379,51.243L136.922,64.913L124.495,64.913" style="fill:none;stroke:black;stroke-width:1.81px;stroke-linejoin:miter;"/>
        <path d="M109.583,70.421L81,70.421" style="fill:none;stroke:black;stroke-width:1.81px;"/>
        <path d="M84.728,62.738L84.728,78.272L100.262,78.272L100.262,62.738L84.728,62.738Z" style="fill:white;stroke:black;stroke-width:1.81px;stroke-linejoin:miter;"/>
        <g id="One11" serif:id="One" transform="matrix(6.12323e-17,1,-1,6.12323e-17,185.44,-94.2994)">
            <text x="160.832px" y="98.353px" style="font-family:'Helvetica';font-size:15.534px;">1</text>
        </g>
        <path id="AND1" serif:id="AND" d="M129.466,82.932L123.252,82.932C116.435,82.932 110.825,77.322 110.825,70.505C110.825,63.688 116.435,58.078 123.252,58.078L129.466,58.078L129.466,82.932Z" style="fill:white;fill-rule:nonzero;stroke:black;stroke-width:1.86px;stroke-linecap:butt;stroke-linejoin:miter;stroke-miterlimit:10;"/>
        <path d="M83.05,50C81.919,50 81,50.919 81,52.05L81,88.959C81,90.091 81.919,91.01 83.05,91.01L142.95,91.01C144.081,91.01 145,90.091 145,88.959L145,52.05C145,50.919 144.081,50 142.95,50L83.05,50Z" style="fill:none;stroke:rgb(26,35,126);stroke-width:2.52px;stroke-linecap:round;"/>
    </g>
    <g id="XOR-0" serif:id="XOR 0">
        <path d="M14.05,75C12.919,75 12,75.919 12,77.05L12,113.959C12,115.091 12.919,116.01 14.05,116.01L73.95,116.01C75.081,116.01 76,115.091 76,113.959L76,77.05C76,75.919 75.081,75 73.95,75L14.05,75Z" style="fill:rgb(159,168,218);"/>
        <path d="M75.379,114.767L67.922,101.097L55.495,101.097" style="fill:none;stroke:black;stroke-width:1.81px;stroke-linejoin:miter;"/>
        <path d="M75.379,76.243L67.922,89.913L55.495,89.913" style="fill:none;stroke:black;stroke-width:1.81px;stroke-linejoin:miter;"/>
        <path d="M40.583,95.421L12,95.421" style="fill:none;stroke:black;stroke-width:1.81px;"/>
        <path d="M15.728,87.738L15.728,103.272L31.262,103.272L31.262,87.738L15.728,87.738Z" style="fill:white;stroke:black;stroke-width:1.81px;stroke-linejoin:miter;"/>
        <g id="Zero9" serif:id="Zero" transform="matrix(6.12323e-17,1,-1,6.12323e-17,141.221,-0.768691)">
            <text x="91.957px" y="123.009px" style="font-family:'Helvetica';font-size:15.534px;">0</text>
        </g>
        <g id="XOR1" serif:id="XOR">
            <path d="M53.92,107.848C47.817,107.848 38.663,101.745 35.612,95.642C38.663,89.54 47.817,83.437 53.92,83.437C47.817,95.642 47.817,95.642 53.92,107.848Z" style="fill:white;fill-rule:nonzero;stroke:black;stroke-width:1.83px;stroke-linecap:butt;stroke-linejoin:miter;stroke-miterlimit:10;"/>
            <path d="M59.905,107.681C55.957,104.812 53.615,100.217 53.615,95.337C53.615,90.457 55.957,85.862 59.905,82.994" style="fill:none;fill-rule:nonzero;stroke:black;stroke-width:1.83px;stroke-linecap:butt;stroke-linejoin:miter;stroke-miterlimit:10;"/>
        </g>
        <path d="M14.05,75C12.919,75 12,75.919 12,77.05L12,113.959C12,115.091 12.919,116.01 14.05,116.01L73.95,116.01C75.081,116.01 76,115.091 76,113.959L76,77.05C76,75.919 75.081,75 73.95,75L14.05,75Z" style="fill:none;stroke:rgb(26,35,126);stroke-width:2.52px;stroke-linecap:round;"/>
    </g>
</svg>
