<?xml version="1.0" encoding="UTF-8" standalone="no"?>
<!DOCTYPE svg PUBLIC "-//W3C//DTD SVG 1.1//EN" "http://www.w3.org/Graphics/SVG/1.1/DTD/svg11.dtd">
<svg width="400px" height="192px" version="1.1" xmlns="http://www.w3.org/2000/svg" xmlns:xlink="http://www.w3.org/1999/xlink" xml:space="preserve" xmlns:serif="http://www.serif.com/" style="fill-rule:evenodd;clip-rule:evenodd;stroke-linecap:round;stroke-linejoin:round;stroke-miterlimit:1.5;">
    <path d="M288,48L320,48" style="fill:none;stroke:black;stroke-width:2px;"/>
    <path d="M320,144L288,144" style="fill:none;stroke:black;stroke-width:2px;"/>
    <path d="M80,144L112,144" style="fill:none;stroke:black;stroke-width:2px;"/>
    <path d="M80,48L112,48" style="fill:none;stroke:black;stroke-width:2px;stroke-linecap:butt;"/>
    <g id="Schalter">
        <rect x="16" y="16" width="64" height="64" style="fill:rgb(144,202,249);stroke:black;stroke-width:2px;"/>
        <g>
            <path d="M48,55.876C50.208,55.876 52,57.661 52,59.861C52,62.06 50.208,63.846 48,63.846C45.792,63.846 44,62.06 44,59.861C44,57.661 45.792,55.876 48,55.876ZM48,57.868C49.104,57.868 50,58.761 50,59.861C50,60.961 49.104,61.853 48,61.853C46.896,61.853 46,60.961 46,59.861C46,58.761 46.896,57.868 48,57.868Z"/>
            <path d="M36,23.939L36,72.061L60,72.061L60,47.991L64,29.939L60,23.939L36,23.939ZM40,67.939L56,67.939L56,51.939L40,51.939L40,67.939ZM40,47.939L56,47.939L59,33.939L43,33.939L40,47.939ZM41,26.939L43,29.939L60,29.939L58,26.939L41,26.939Z"/>
            <path d="M49.646,37.734C49.762,37.189 50.294,36.839 50.834,36.954C51.374,37.069 51.718,37.605 51.602,38.15L50.354,44.019L50.353,44.026C50.234,44.567 49.704,44.914 49.166,44.8C48.626,44.685 48.282,44.149 48.398,43.603L49.646,37.734Z"/>
        </g>
    </g>
    <g id="Schalter1" serif:id="Schalter">
        <rect x="16" y="112" width="64" height="64" style="fill:rgb(144,202,249);stroke:black;stroke-width:2px;"/>
        <g>
            <path d="M48,151.876C50.208,151.876 52,153.661 52,155.861C52,158.06 50.208,159.846 48,159.846C45.792,159.846 44,158.06 44,155.861C44,153.661 45.792,151.876 48,151.876ZM48,153.868C49.104,153.868 50,154.761 50,155.861C50,156.961 49.104,157.853 48,157.853C46.896,157.853 46,156.961 46,155.861C46,154.761 46.896,153.868 48,153.868Z"/>
            <path d="M36,119.939L36,168.061L60,168.061L60,143.991L64,125.939L60,119.939L36,119.939ZM40,163.939L56,163.939L56,147.939L40,147.939L40,163.939ZM40,143.939L56,143.939L59,129.939L43,129.939L40,143.939ZM41,122.939L43,125.939L60,125.939L58,122.939L41,122.939Z"/>
            <path d="M49.646,133.734C49.762,133.189 50.294,132.839 50.834,132.954C51.374,133.069 51.718,133.605 51.602,134.15L50.354,140.019L50.353,140.026C50.234,140.567 49.704,140.914 49.166,140.8C48.626,140.685 48.282,140.149 48.398,139.603L49.646,133.734Z"/>
        </g>
    </g>
    <g id="Tür">
        <rect x="320" y="16" width="64" height="64" style="fill:rgb(255,204,128);stroke:black;stroke-width:2px;"/>
        <path d="M338,32.279L338,63.721L350.838,68L353,68L353,28L350.838,28L338,32.279ZM351,65.946L340,62.279L340,33.721L351,30.054L351,65.946ZM366,32L366,64C366,65.097 365.097,66 364,66L355,66L355,64L364,64L364,32L355,32L355,30L364,30C365.097,30 366,30.903 366,32ZM346,48C346,47.451 346.451,47 347,47C347.549,47 348,47.451 348,48C348,48.549 347.549,49 347,49C346.451,49 346,48.549 346,48Z" style="fill-rule:nonzero;"/>
    </g>
    <g id="Tür1" serif:id="Tür">
        <rect x="320" y="112" width="64" height="64" style="fill:rgb(255,204,128);stroke:black;stroke-width:2px;"/>
        <path d="M338,128.279L338,159.721L350.838,164L353,164L353,124L350.838,124L338,128.279ZM351,161.946L340,158.279L340,129.721L351,126.054L351,161.946ZM366,128L366,160C366,161.097 365.097,162 364,162L355,162L355,160L364,160L364,128L355,128L355,126L364,126C365.097,126 366,126.903 366,128ZM346,144C346,143.451 346.451,143 347,143C347.549,143 348,143.451 348,144C348,144.549 347.549,145 347,145C346.451,145 346,144.549 346,144Z" style="fill-rule:nonzero;"/>
    </g>
</svg>
