<?xml version="1.0" encoding="UTF-8" standalone="no"?>
<!DOCTYPE svg PUBLIC "-//W3C//DTD SVG 1.1//EN" "http://www.w3.org/Graphics/SVG/1.1/DTD/svg11.dtd">
<svg width="400px" height="192px" version="1.1" xmlns="http://www.w3.org/2000/svg" xmlns:xlink="http://www.w3.org/1999/xlink" xml:space="preserve" xmlns:serif="http://www.serif.com/" style="fill-rule:evenodd;clip-rule:evenodd;stroke-linejoin:round;stroke-miterlimit:1.5;">
    <path d="M288,96L320,96" style="fill:none;stroke:black;stroke-width:2px;"/>
    <g id="Motor">
        <rect x="320" y="64" width="64" height="64" style="fill:rgb(255,204,128);stroke:black;stroke-width:2px;stroke-linecap:round;"/>
        <path d="M352,88C356.389,88 360,91.611 360,96C360,100.389 356.389,104 352,104C347.611,104 344,100.389 344,96C344,91.611 347.611,88 352,88M352,92C349.806,92 348,93.806 348,96C348,98.194 349.806,100 352,100C354.194,100 356,98.194 356,96C356,93.806 354.194,92 352,92M348,116C347.5,116 347.08,115.64 347,115.16L346.26,109.86C345,109.36 343.92,108.68 342.88,107.88L337.9,109.9C337.46,110.06 336.92,109.9 336.68,109.46L332.68,102.54C332.42,102.1 332.54,101.56 332.92,101.26L337.14,97.94L337,96L337.14,94L332.92,90.74C332.54,90.44 332.42,89.9 332.68,89.46L336.68,82.54C336.92,82.1 337.46,81.92 337.9,82.1L342.88,84.1C343.92,83.32 345,82.64 346.26,82.14L347,76.84C347.08,76.36 347.5,76 348,76L356,76C356.5,76 356.92,76.36 357,76.84L357.74,82.14C359,82.64 360.08,83.32 361.12,84.1L366.1,82.1C366.54,81.92 367.08,82.1 367.32,82.54L371.32,89.46C371.58,89.9 371.46,90.44 371.08,90.74L366.86,94L367,96L366.86,98L371.08,101.26C371.46,101.56 371.58,102.1 371.32,102.54L367.32,109.46C367.08,109.9 366.54,110.08 366.1,109.9L361.12,107.9C360.08,108.68 359,109.36 357.74,109.86L357,115.16C356.92,115.64 356.5,116 356,116L348,116M350.5,80L349.76,85.22C347.36,85.72 345.24,87 343.7,88.78L338.88,86.7L337.38,89.3L341.6,92.4C340.8,94.74 340.8,97.28 341.6,99.6L337.36,102.72L338.86,105.32L343.72,103.24C345.26,105 347.36,106.28 349.74,106.76L350.48,112L353.52,112L354.26,106.78C356.64,106.28 358.74,105 360.28,103.24L365.14,105.32L366.64,102.72L362.4,99.62C363.2,97.28 363.2,94.74 362.4,92.4L366.62,89.3L365.12,86.7L360.3,88.78C358.76,87 356.64,85.72 354.24,85.24L353.5,80L350.5,80Z" style="fill-rule:nonzero;"/>
    </g>
    <g id="Taster">
        <rect x="16" y="112" width="64" height="64" style="fill:rgb(144,202,249);stroke:black;stroke-width:2px;stroke-linecap:round;"/>
        <path d="M48,130.5C43.776,130.5 39.969,130.966 37.092,131.797C35.654,132.212 34.442,132.718 33.482,133.375C32.523,134.032 31.67,134.991 31.67,136.281L31.67,142.094L28.997,142.094C28.945,142.091 28.893,142.091 28.841,142.094C28.207,142.156 27.678,142.615 27.528,143.234L24.544,155.641C24.515,155.758 24.5,155.879 24.5,156C24.5,156.822 25.175,157.498 25.997,157.5L70.003,157.5C70.825,157.498 71.5,156.822 71.5,156C71.5,155.879 71.485,155.758 71.456,155.641L68.472,143.234C68.306,142.562 67.695,142.088 67.003,142.094L64.33,142.094L64.33,136.281C64.33,134.991 63.477,134.032 62.518,133.375C61.558,132.718 60.346,132.212 58.908,131.797C56.031,130.966 52.224,130.5 48,130.5ZM48,133.5C51.992,133.5 55.595,133.97 58.08,134.687C59.322,135.046 60.277,135.476 60.814,135.844C61.076,136.023 61.204,136.157 61.267,136.234C61.116,136.389 60.839,136.63 60.377,136.875C59.684,137.243 58.67,137.621 57.439,137.937C54.976,138.571 51.641,138.969 48,138.969C44.359,138.969 41.024,138.571 38.561,137.937C37.33,137.621 36.316,137.243 35.623,136.875C35.169,136.634 34.886,136.405 34.733,136.25C34.794,136.174 34.917,136.028 35.186,135.844C35.723,135.476 36.678,135.046 37.92,134.687C40.405,133.97 44.008,133.5 48,133.5ZM34.67,139.75C35.573,140.177 36.621,140.522 37.811,140.828C40.598,141.545 44.138,141.969 48,141.969C51.862,141.969 55.402,141.545 58.189,140.828C59.379,140.522 60.427,140.177 61.33,139.75L61.33,146.875C61.311,146.897 61.217,147.052 60.814,147.328C60.277,147.696 59.322,148.126 58.08,148.484C55.595,149.202 51.992,149.672 48,149.672C44.008,149.672 40.405,149.202 37.92,148.484C36.678,148.126 35.723,147.696 35.186,147.328C34.799,147.064 34.694,146.923 34.67,146.891L34.67,139.75ZM30.169,145.094L31.67,145.094L31.67,146.891C31.67,148.181 32.523,149.14 33.482,149.797C34.442,150.454 35.654,150.944 37.092,151.359C39.969,152.19 43.776,152.672 48,152.672C52.224,152.672 56.031,152.19 58.908,151.359C60.346,150.944 61.558,150.454 62.518,149.797C63.477,149.14 64.33,148.181 64.33,146.891L64.33,145.094L65.831,145.094L68.097,154.5L27.903,154.5L30.169,145.094Z" style="fill-rule:nonzero;"/>
    </g>
    <g id="Taster1" serif:id="Taster">
        <rect x="16" y="16" width="64" height="64" style="fill:rgb(144,202,249);stroke:black;stroke-width:2px;stroke-linecap:round;"/>
        <path d="M48,34.5C43.776,34.5 39.969,34.966 37.092,35.797C35.654,36.212 34.442,36.718 33.482,37.375C32.523,38.032 31.67,38.991 31.67,40.281L31.67,46.094L28.997,46.094C28.945,46.091 28.893,46.091 28.841,46.094C28.207,46.156 27.678,46.615 27.528,47.234L24.544,59.641C24.515,59.758 24.5,59.879 24.5,60C24.5,60.822 25.175,61.498 25.997,61.5L70.003,61.5C70.825,61.498 71.5,60.822 71.5,60C71.5,59.879 71.485,59.758 71.456,59.641L68.472,47.234C68.306,46.562 67.695,46.088 67.003,46.094L64.33,46.094L64.33,40.281C64.33,38.991 63.477,38.032 62.518,37.375C61.558,36.718 60.346,36.212 58.908,35.797C56.031,34.966 52.224,34.5 48,34.5ZM48,37.5C51.992,37.5 55.595,37.97 58.08,38.687C59.322,39.046 60.277,39.476 60.814,39.844C61.076,40.023 61.204,40.157 61.267,40.234C61.116,40.389 60.839,40.63 60.377,40.875C59.684,41.243 58.67,41.621 57.439,41.937C54.976,42.571 51.641,42.969 48,42.969C44.359,42.969 41.024,42.571 38.561,41.937C37.33,41.621 36.316,41.243 35.623,40.875C35.169,40.634 34.886,40.405 34.733,40.25C34.794,40.174 34.917,40.028 35.186,39.844C35.723,39.476 36.678,39.046 37.92,38.687C40.405,37.97 44.008,37.5 48,37.5ZM34.67,43.75C35.573,44.177 36.621,44.522 37.811,44.828C40.598,45.545 44.138,45.969 48,45.969C51.862,45.969 55.402,45.545 58.189,44.828C59.379,44.522 60.427,44.177 61.33,43.75L61.33,50.875C61.311,50.897 61.217,51.052 60.814,51.328C60.277,51.696 59.322,52.126 58.08,52.484C55.595,53.202 51.992,53.672 48,53.672C44.008,53.672 40.405,53.202 37.92,52.484C36.678,52.126 35.723,51.696 35.186,51.328C34.799,51.064 34.694,50.923 34.67,50.891L34.67,43.75ZM30.169,49.094L31.67,49.094L31.67,50.891C31.67,52.181 32.523,53.14 33.482,53.797C34.442,54.454 35.654,54.944 37.092,55.359C39.969,56.19 43.776,56.672 48,56.672C52.224,56.672 56.031,56.19 58.908,55.359C60.346,54.944 61.558,54.454 62.518,53.797C63.477,53.14 64.33,52.181 64.33,50.891L64.33,49.094L65.831,49.094L68.097,58.5L27.903,58.5L30.169,49.094Z" style="fill-rule:nonzero;"/>
    </g>
    <path id="OR" d="M208,64C224,64 248,80 256,96C248,112 224,128 208,128C224,96 224,96 208,64Z" style="fill:white;fill-rule:nonzero;stroke:black;stroke-width:2px;stroke-linejoin:miter;stroke-miterlimit:10;"/>
    <path d="M80,48L112,48L112,80L216,80" style="fill:none;stroke:black;stroke-width:2px;"/>
    <path d="M112,144L112,112L216,112" style="fill:none;stroke:black;stroke-width:2px;"/>
    <path d="M112,144L80,144" style="fill:none;stroke:black;stroke-width:2px;stroke-linecap:round;"/>
    <path d="M256,96L288,96" style="fill:none;stroke:black;stroke-width:2px;"/>
</svg>
