<?xml version="1.0" encoding="UTF-8" standalone="no"?>
<!DOCTYPE svg PUBLIC "-//W3C//DTD SVG 1.1//EN" "http://www.w3.org/Graphics/SVG/1.1/DTD/svg11.dtd">
<svg width="400px" height="192px" version="1.1" xmlns="http://www.w3.org/2000/svg" xmlns:xlink="http://www.w3.org/1999/xlink" xml:space="preserve" xmlns:serif="http://www.serif.com/" style="fill-rule:evenodd;clip-rule:evenodd;stroke-linejoin:round;stroke-miterlimit:1.5;">
    <path d="M288,96L320,96" style="fill:none;stroke:black;stroke-width:2px;"/>
    <path d="M80,144L112,144" style="fill:none;stroke:black;stroke-width:2px;stroke-linecap:round;"/>
    <path d="M80,48L112,48" style="fill:none;stroke:black;stroke-width:2px;"/>
    <g id="Licht">
        <rect x="320" y="64" width="64" height="64" style="fill:rgb(255,204,128);stroke:black;stroke-width:2px;stroke-linecap:round;"/>
        <path d="M340,86.8L335.74,82.56L338.56,79.74L342.8,84L340,86.8M354,75L354,81L350,81L350,75L354,75M368.26,82.56L364,86.8L361.2,84L365.44,79.74L368.26,82.56M337,94L337,98L331,98L331,94L337,94M367,94L373,94L373,98L367,98L367,94M340,113L364,113C366.194,113 368,114.806 368,117L336,117C336,114.806 337.806,113 340,113M352,83C358.583,83 364,88.417 364,95L364,111L340,111L340,95C340,88.417 345.417,83 352,83M352,87C347.611,87 344,90.611 344,95L344,107L360,107L360,95C360,90.611 356.389,87 352,87Z" style="fill-rule:nonzero;"/>
    </g>
    <g id="Taster">
        <rect x="16" y="112" width="64" height="64" style="fill:rgb(144,202,249);stroke:black;stroke-width:2px;stroke-linecap:round;"/>
        <path d="M48,130.5C43.776,130.5 39.969,130.966 37.092,131.797C35.654,132.212 34.442,132.718 33.482,133.375C32.523,134.032 31.67,134.991 31.67,136.281L31.67,142.094L28.997,142.094C28.945,142.091 28.893,142.091 28.841,142.094C28.207,142.156 27.678,142.615 27.528,143.234L24.544,155.641C24.515,155.758 24.5,155.879 24.5,156C24.5,156.822 25.175,157.498 25.997,157.5L70.003,157.5C70.825,157.498 71.5,156.822 71.5,156C71.5,155.879 71.485,155.758 71.456,155.641L68.472,143.234C68.306,142.562 67.695,142.088 67.003,142.094L64.33,142.094L64.33,136.281C64.33,134.991 63.477,134.032 62.518,133.375C61.558,132.718 60.346,132.212 58.908,131.797C56.031,130.966 52.224,130.5 48,130.5ZM48,133.5C51.992,133.5 55.595,133.97 58.08,134.687C59.322,135.046 60.277,135.476 60.814,135.844C61.076,136.023 61.204,136.157 61.267,136.234C61.116,136.389 60.839,136.63 60.377,136.875C59.684,137.243 58.67,137.621 57.439,137.937C54.976,138.571 51.641,138.969 48,138.969C44.359,138.969 41.024,138.571 38.561,137.937C37.33,137.621 36.316,137.243 35.623,136.875C35.169,136.634 34.886,136.405 34.733,136.25C34.794,136.174 34.917,136.028 35.186,135.844C35.723,135.476 36.678,135.046 37.92,134.687C40.405,133.97 44.008,133.5 48,133.5ZM34.67,139.75C35.573,140.177 36.621,140.522 37.811,140.828C40.598,141.545 44.138,141.969 48,141.969C51.862,141.969 55.402,141.545 58.189,140.828C59.379,140.522 60.427,140.177 61.33,139.75L61.33,146.875C61.311,146.897 61.217,147.052 60.814,147.328C60.277,147.696 59.322,148.126 58.08,148.484C55.595,149.202 51.992,149.672 48,149.672C44.008,149.672 40.405,149.202 37.92,148.484C36.678,148.126 35.723,147.696 35.186,147.328C34.799,147.064 34.694,146.923 34.67,146.891L34.67,139.75ZM30.169,145.094L31.67,145.094L31.67,146.891C31.67,148.181 32.523,149.14 33.482,149.797C34.442,150.454 35.654,150.944 37.092,151.359C39.969,152.19 43.776,152.672 48,152.672C52.224,152.672 56.031,152.19 58.908,151.359C60.346,150.944 61.558,150.454 62.518,149.797C63.477,149.14 64.33,148.181 64.33,146.891L64.33,145.094L65.831,145.094L68.097,154.5L27.903,154.5L30.169,145.094Z" style="fill-rule:nonzero;"/>
    </g>
    <g id="Temperatursensor">
        <rect x="16" y="16" width="64" height="64" style="fill:rgb(144,202,249);stroke:black;stroke-width:2px;stroke-linecap:round;"/>
        <g>
            <path d="M49.561,57.644L49.561,29.09C49.561,26.32 47.295,24.054 44.525,24.054C41.755,24.054 39.489,26.32 39.489,29.09L39.489,57.644C37.626,59.155 36.468,61.471 36.468,63.888C36.468,68.32 40.094,71.946 44.525,71.946C48.957,71.946 52.532,68.32 52.532,63.888C52.532,61.471 51.424,59.155 49.561,57.644ZM44.525,70.234C41.05,70.234 38.23,67.413 38.23,63.939C38.23,61.723 39.389,59.709 41.252,58.55L41.252,29.14C41.252,27.328 42.712,25.817 44.576,25.817C46.389,25.817 47.899,27.277 47.899,29.14L47.899,58.55C49.712,59.709 50.921,61.723 50.921,63.939C50.82,67.413 48,70.234 44.525,70.234Z" style="fill-rule:nonzero;"/>
            <path d="M46.086,59.608L46.086,29.14C46.086,28.284 45.381,27.579 44.525,27.579C43.669,27.579 42.964,28.284 42.964,29.14L42.964,59.608C41.202,60.262 39.943,61.924 39.943,63.888C39.943,66.406 42.007,68.471 44.525,68.471C47.043,68.471 49.108,66.406 49.108,63.888C49.108,61.924 47.849,60.262 46.086,59.608Z" style="fill-rule:nonzero;"/>
            <rect x="51.324" y="29.191" width="8.209" height="1.712"/>
            <rect x="51.324" y="34.881" width="3.878" height="1.712"/>
            <rect x="51.324" y="40.622" width="8.209" height="1.712"/>
            <rect x="51.324" y="46.313" width="3.878" height="1.712"/>
            <rect x="51.324" y="52.004" width="8.209" height="1.712"/>
        </g>
    </g>
</svg>
