<?xml version="1.0" encoding="UTF-8" standalone="no"?>
<!DOCTYPE svg PUBLIC "-//W3C//DTD SVG 1.1//EN" "http://www.w3.org/Graphics/SVG/1.1/DTD/svg11.dtd">
<svg width="512px" height="288px" version="1.1" xmlns="http://www.w3.org/2000/svg" xmlns:xlink="http://www.w3.org/1999/xlink" xml:space="preserve" xmlns:serif="http://www.serif.com/" style="fill-rule:evenodd;clip-rule:evenodd;stroke-linejoin:round;stroke-miterlimit:1.5;">
    <path d="M397.165,96L429.165,96" style="fill:none;stroke:black;stroke-width:2px;"/>
    <path d="M80,240L112,240" style="fill:none;stroke:black;stroke-width:2px;"/>
    <path d="M400,224L432,224" style="fill:none;stroke:black;stroke-width:2px;"/>
    <path d="M80,144L112,144" style="fill:none;stroke:black;stroke-width:2px;stroke-linecap:round;"/>
    <path d="M80,48L112,48" style="fill:none;stroke:black;stroke-width:2px;"/>
    <g id="Licht">
        <rect x="432" y="192" width="64" height="64" style="fill:rgb(255,204,128);stroke:black;stroke-width:2px;stroke-linecap:round;"/>
        <path d="M452,214.8L447.74,210.56L450.56,207.74L454.8,212L452,214.8M466,203L466,209L462,209L462,203L466,203M480.26,210.56L476,214.8L473.2,212L477.44,207.74L480.26,210.56M449,222L449,226L443,226L443,222L449,222M479,222L485,222L485,226L479,226L479,222M452,241L476,241C478.194,241 480,242.806 480,245L448,245C448,242.806 449.806,241 452,241M464,211C470.583,211 476,216.417 476,223L476,239L452,239L452,223C452,216.417 457.417,211 464,211M464,215C459.611,215 456,218.611 456,223L456,235L472,235L472,223C472,218.611 468.389,215 464,215Z" style="fill-rule:nonzero;"/>
    </g>
    <g id="Lautsprecher">
        <rect x="432" y="64" width="64" height="64" style="fill:rgb(255,204,128);stroke:black;stroke-width:2px;stroke-linecap:round;"/>
        <path d="M468,78.46L468,82.58C473.78,84.3 478,89.66 478,96C478,102.34 473.78,107.68 468,109.4L468,113.54C476,111.72 482,104.56 482,96C482,87.44 476,80.28 468,78.46M473,96C473,92.46 471,89.42 468,87.94L468,104C471,102.58 473,99.52 473,96M446,90L446,102L454,102L464,112L464,80L454,90L446,90Z" style="fill-rule:nonzero;"/>
    </g>
    <g id="Taster">
        <rect x="16" y="112" width="64" height="64" style="fill:rgb(144,202,249);stroke:black;stroke-width:2px;stroke-linecap:round;"/>
        <path d="M48,130.5C43.776,130.5 39.969,130.966 37.092,131.797C35.654,132.212 34.442,132.718 33.482,133.375C32.523,134.032 31.67,134.991 31.67,136.281L31.67,142.094L28.997,142.094C28.945,142.091 28.893,142.091 28.841,142.094C28.207,142.156 27.678,142.615 27.528,143.234L24.544,155.641C24.515,155.758 24.5,155.879 24.5,156C24.5,156.822 25.175,157.498 25.997,157.5L70.003,157.5C70.825,157.498 71.5,156.822 71.5,156C71.5,155.879 71.485,155.758 71.456,155.641L68.472,143.234C68.306,142.562 67.695,142.088 67.003,142.094L64.33,142.094L64.33,136.281C64.33,134.991 63.477,134.032 62.518,133.375C61.558,132.718 60.346,132.212 58.908,131.797C56.031,130.966 52.224,130.5 48,130.5ZM48,133.5C51.992,133.5 55.595,133.97 58.08,134.687C59.322,135.046 60.277,135.476 60.814,135.844C61.076,136.023 61.204,136.157 61.267,136.234C61.116,136.389 60.839,136.63 60.377,136.875C59.684,137.243 58.67,137.621 57.439,137.937C54.976,138.571 51.641,138.969 48,138.969C44.359,138.969 41.024,138.571 38.561,137.937C37.33,137.621 36.316,137.243 35.623,136.875C35.169,136.634 34.886,136.405 34.733,136.25C34.794,136.174 34.917,136.028 35.186,135.844C35.723,135.476 36.678,135.046 37.92,134.687C40.405,133.97 44.008,133.5 48,133.5ZM34.67,139.75C35.573,140.177 36.621,140.522 37.811,140.828C40.598,141.545 44.138,141.969 48,141.969C51.862,141.969 55.402,141.545 58.189,140.828C59.379,140.522 60.427,140.177 61.33,139.75L61.33,146.875C61.311,146.897 61.217,147.052 60.814,147.328C60.277,147.696 59.322,148.126 58.08,148.484C55.595,149.202 51.992,149.672 48,149.672C44.008,149.672 40.405,149.202 37.92,148.484C36.678,148.126 35.723,147.696 35.186,147.328C34.799,147.064 34.694,146.923 34.67,146.891L34.67,139.75ZM30.169,145.094L31.67,145.094L31.67,146.891C31.67,148.181 32.523,149.14 33.482,149.797C34.442,150.454 35.654,150.944 37.092,151.359C39.969,152.19 43.776,152.672 48,152.672C52.224,152.672 56.031,152.19 58.908,151.359C60.346,150.944 61.558,150.454 62.518,149.797C63.477,149.14 64.33,148.181 64.33,146.891L64.33,145.094L65.831,145.094L68.097,154.5L27.903,154.5L30.169,145.094Z" style="fill-rule:nonzero;"/>
    </g>
    <g id="Schalter">
        <rect x="16" y="208" width="64" height="64" style="fill:rgb(144,202,249);stroke:black;stroke-width:2px;stroke-linecap:round;"/>
        <g>
            <path d="M63.786,221.555L63.786,221.502C63.786,221.398 63.733,221.345 63.681,221.241C63.681,221.241 63.681,221.188 63.629,221.188C63.576,221.136 63.576,221.084 63.524,221.031L63.472,220.979L63.472,220.927L59.809,217.264C59.599,217.055 59.338,216.95 59.076,216.95L36.89,216.95C36.837,216.95 36.785,216.95 36.733,217.002L36.68,217.002C36.628,217.002 36.628,217.055 36.576,217.055C36.523,217.055 36.471,217.107 36.419,217.159L36.209,217.369C36.157,217.421 36.157,217.473 36.105,217.526C36.105,217.578 36.052,217.578 36.052,217.63L36.052,217.683C36.052,217.735 36,217.787 36,217.84L36,262.003C36,262.579 36.471,263.05 37.047,263.05L59.024,263.05C59.599,263.05 60.07,262.579 60.07,262.003L60.07,240.131L63.733,221.921L63.733,221.764C63.838,221.659 63.838,221.607 63.786,221.555ZM58.658,219.095L60.227,220.665L41.233,220.665L39.663,219.095L58.658,219.095ZM38.145,229.456L38.145,220.561L39.611,222.026L38.145,229.456ZM58.082,260.957L38.198,260.957L38.198,241.073L58.082,241.073L58.082,260.957ZM58.239,238.98L38.407,238.98L41.651,222.758L61.536,222.758L58.239,238.98ZM48.925,233.381L49.867,228.776C49.971,228.2 50.547,227.834 51.122,227.939C51.698,228.043 52.064,228.619 51.96,229.194L50.965,233.799C50.861,234.323 50.442,234.636 49.919,234.636L49.71,234.636C49.186,234.532 48.82,233.956 48.925,233.381ZM48.14,254.835C50.233,254.835 51.96,253.108 51.96,251.015C51.96,248.922 50.233,247.247 48.14,247.247C46.047,247.247 44.32,248.974 44.32,251.067C44.32,253.16 46.047,254.835 48.14,254.835ZM48.14,249.34C49.082,249.34 49.867,250.125 49.867,251.067C49.867,252.009 49.082,252.794 48.14,252.794C47.198,252.794 46.413,252.009 46.413,251.067C46.413,250.073 47.198,249.34 48.14,249.34Z" style="fill-rule:nonzero;"/>
        </g>
    </g>
    <g id="Bewegungssensor">
        <rect x="16" y="16" width="64" height="64" style="fill:rgb(144,202,249);stroke:black;stroke-width:2px;stroke-linecap:round;"/>
        <path d="M57,34.5C59.194,34.5 61,32.694 61,30.5C61,28.306 59.194,26.5 57,26.5C54.806,26.5 53,28.306 53,30.5C53,32.694 54.806,34.5 57,34.5M49.8,62.3L51.8,53.5L56,57.5L56,69.5L60,69.5L60,54.5L55.8,50.5L57,44.5C59.78,47.68 63.78,49.5 68,49.5L68,45.5C64.48,45.56 61.2,43.72 59.4,40.7L57.4,37.5C56.68,36.3 55.4,35.5 54,35.5C53.4,35.5 53,35.7 52.4,35.7L42,40.1L42,49.5L46,49.5L46,42.7L49.6,41.3L46.4,57.5L36.6,55.5L35.8,59.5L49.8,62.3M32,41.5C30.903,41.5 30,40.597 30,39.5C30,38.403 30.903,37.5 32,37.5L38,37.5L38,41.5L32,41.5M34,33.5C32.903,33.5 32,32.597 32,31.5C32,30.403 32.903,29.5 34,29.5L44,29.5L44,33.5L34,33.5M30,49.5C28.903,49.5 28,48.597 28,47.5C28,46.403 28.903,45.5 30,45.5L38,45.5L38,49.5L30,49.5Z" style="fill-rule:nonzero;"/>
    </g>
</svg>
