<?xml version="1.0" encoding="UTF-8" standalone="no"?>
<!DOCTYPE svg PUBLIC "-//W3C//DTD SVG 1.1//EN" "http://www.w3.org/Graphics/SVG/1.1/DTD/svg11.dtd">
<svg width="400px" height="192px" version="1.1" xmlns="http://www.w3.org/2000/svg" xmlns:xlink="http://www.w3.org/1999/xlink" xml:space="preserve" xmlns:serif="http://www.serif.com/" style="fill-rule:evenodd;clip-rule:evenodd;stroke-linejoin:round;stroke-miterlimit:1.5;">
    <path d="M112,48L112,80L216,80" style="fill:none;stroke:black;stroke-width:2px;"/>
    <path d="M176,144L192,144L192,112L216,112" style="fill:none;stroke:black;stroke-width:2px;"/>
    <path d="M257,96L320,96" style="fill:none;stroke:black;stroke-width:2px;"/>
    <path d="M80,144L112,144" style="fill:none;stroke:black;stroke-width:2px;stroke-linecap:round;"/>
    <path d="M80,48L112,48" style="fill:none;stroke:black;stroke-width:2px;"/>
    <g id="Lautsprecher">
        <rect x="320" y="64" width="64" height="64" style="fill:rgb(255,204,128);stroke:black;stroke-width:2px;stroke-linecap:round;"/>
        <path d="M356,78.46L356,82.58C361.78,84.3 366,89.66 366,96C366,102.34 361.78,107.68 356,109.4L356,113.54C364,111.72 370,104.56 370,96C370,87.44 364,80.28 356,78.46M361,96C361,92.46 359,89.42 356,87.94L356,104C359,102.58 361,99.52 361,96M334,90L334,102L342,102L352,112L352,80L342,90L334,90Z" style="fill-rule:nonzero;"/>
    </g>
    <g id="Taster">
        <rect x="16" y="112" width="64" height="64" style="fill:rgb(144,202,249);stroke:black;stroke-width:2px;stroke-linecap:round;"/>
        <path d="M48,130.5C43.776,130.5 39.969,130.966 37.092,131.797C35.654,132.212 34.442,132.718 33.482,133.375C32.523,134.032 31.67,134.991 31.67,136.281L31.67,142.094L28.997,142.094C28.945,142.091 28.893,142.091 28.841,142.094C28.207,142.156 27.678,142.615 27.528,143.234L24.544,155.641C24.515,155.758 24.5,155.879 24.5,156C24.5,156.822 25.175,157.498 25.997,157.5L70.003,157.5C70.825,157.498 71.5,156.822 71.5,156C71.5,155.879 71.485,155.758 71.456,155.641L68.472,143.234C68.306,142.562 67.695,142.088 67.003,142.094L64.33,142.094L64.33,136.281C64.33,134.991 63.477,134.032 62.518,133.375C61.558,132.718 60.346,132.212 58.908,131.797C56.031,130.966 52.224,130.5 48,130.5ZM48,133.5C51.992,133.5 55.595,133.97 58.08,134.687C59.322,135.046 60.277,135.476 60.814,135.844C61.076,136.023 61.204,136.157 61.267,136.234C61.116,136.389 60.839,136.63 60.377,136.875C59.684,137.243 58.67,137.621 57.439,137.937C54.976,138.571 51.641,138.969 48,138.969C44.359,138.969 41.024,138.571 38.561,137.937C37.33,137.621 36.316,137.243 35.623,136.875C35.169,136.634 34.886,136.405 34.733,136.25C34.794,136.174 34.917,136.028 35.186,135.844C35.723,135.476 36.678,135.046 37.92,134.687C40.405,133.97 44.008,133.5 48,133.5ZM34.67,139.75C35.573,140.177 36.621,140.522 37.811,140.828C40.598,141.545 44.138,141.969 48,141.969C51.862,141.969 55.402,141.545 58.189,140.828C59.379,140.522 60.427,140.177 61.33,139.75L61.33,146.875C61.311,146.897 61.217,147.052 60.814,147.328C60.277,147.696 59.322,148.126 58.08,148.484C55.595,149.202 51.992,149.672 48,149.672C44.008,149.672 40.405,149.202 37.92,148.484C36.678,148.126 35.723,147.696 35.186,147.328C34.799,147.064 34.694,146.923 34.67,146.891L34.67,139.75ZM30.169,145.094L31.67,145.094L31.67,146.891C31.67,148.181 32.523,149.14 33.482,149.797C34.442,150.454 35.654,150.944 37.092,151.359C39.969,152.19 43.776,152.672 48,152.672C52.224,152.672 56.031,152.19 58.908,151.359C60.346,150.944 61.558,150.454 62.518,149.797C63.477,149.14 64.33,148.181 64.33,146.891L64.33,145.094L65.831,145.094L68.097,154.5L27.903,154.5L30.169,145.094Z" style="fill-rule:nonzero;"/>
    </g>
    <path id="OR" d="M208,64C224,64 248,80 256,96C248,112 224,128 208,128C224,96 224,96 208,64Z" style="fill:white;fill-rule:nonzero;stroke:black;stroke-width:2px;stroke-linejoin:miter;stroke-miterlimit:10;"/>
    <g id="Bewegungssensor">
        <rect x="16" y="16" width="64" height="64" style="fill:rgb(144,202,249);stroke:black;stroke-width:2px;stroke-linecap:round;"/>
        <path d="M57,34.5C59.194,34.5 61,32.694 61,30.5C61,28.306 59.194,26.5 57,26.5C54.806,26.5 53,28.306 53,30.5C53,32.694 54.806,34.5 57,34.5M49.8,62.3L51.8,53.5L56,57.5L56,69.5L60,69.5L60,54.5L55.8,50.5L57,44.5C59.78,47.68 63.78,49.5 68,49.5L68,45.5C64.48,45.56 61.2,43.72 59.4,40.7L57.4,37.5C56.68,36.3 55.4,35.5 54,35.5C53.4,35.5 53,35.7 52.4,35.7L42,40.1L42,49.5L46,49.5L46,42.7L49.6,41.3L46.4,57.5L36.6,55.5L35.8,59.5L49.8,62.3M32,41.5C30.903,41.5 30,40.597 30,39.5C30,38.403 30.903,37.5 32,37.5L38,37.5L38,41.5L32,41.5M34,33.5C32.903,33.5 32,32.597 32,31.5C32,30.403 32.903,29.5 34,29.5L44,29.5L44,33.5L34,33.5M30,49.5C28.903,49.5 28,48.597 28,47.5C28,46.403 28.903,45.5 30,45.5L38,45.5L38,49.5L30,49.5Z" style="fill-rule:nonzero;"/>
    </g>
    <g id="Inverter">
        <path d="M112,128L160,144L112,160L112,128Z" style="fill:white;fill-rule:nonzero;stroke:black;stroke-width:2px;stroke-linecap:square;stroke-linejoin:miter;stroke-miterlimit:10;"/>
        <path d="M176,144C176,148.389 172.389,152 168,152C163.611,152 160,148.389 160,144C160,139.611 163.611,136 168,136C172.386,136 175.996,139.606 176,143.992" style="fill:white;fill-rule:nonzero;stroke:black;stroke-width:2px;stroke-linejoin:miter;stroke-miterlimit:10;"/>
    </g>
</svg>
